<?xml version="1.0" encoding="UTF-8" standalone="no"?>
<!-- Created with Inkscape (http://www.inkscape.org/) -->

<svg
   xmlns:dc="http://purl.org/dc/elements/1.1/"
   xmlns:cc="http://creativecommons.org/ns#"
   xmlns:rdf="http://www.w3.org/1999/02/22-rdf-syntax-ns#"
   xmlns:svg="http://www.w3.org/2000/svg"
   xmlns="http://www.w3.org/2000/svg"
   xmlns:sodipodi="http://sodipodi.sourceforge.net/DTD/sodipodi-0.dtd"
   xmlns:inkscape="http://www.inkscape.org/namespaces/inkscape"
   width="199.97336mm"
   height="35.167095mm"
   viewBox="0 0 708.56701 124.60782"
   id="svg3438"
   version="1.1"
   inkscape:version="0.91 r13725"
   sodipodi:docname="logohandmade.svg">
  <defs
     id="defs3440" />
  <sodipodi:namedview
     id="base"
     pagecolor="#ffffff"
     bordercolor="#666666"
     borderopacity="1.0"
     inkscape:pageopacity="0.0"
     inkscape:pageshadow="2"
     inkscape:zoom="0.49497475"
     inkscape:cx="358.85493"
     inkscape:cy="-267.63708"
     inkscape:document-units="px"
     inkscape:current-layer="layer1"
     showgrid="false"
     inkscape:window-width="1280"
     inkscape:window-height="726"
     inkscape:window-x="201"
     inkscape:window-y="0"
     inkscape:window-maximized="0"
     fit-margin-top="0"
     fit-margin-left="0"
     fit-margin-right="0"
     fit-margin-bottom="0" />
  <metadata
     id="metadata3443">
    <rdf:RDF>
      <cc:Work
         rdf:about="">
        <dc:format>image/svg+xml</dc:format>
        <dc:type
           rdf:resource="http://purl.org/dc/dcmitype/StillImage" />
        <dc:title></dc:title>
      </cc:Work>
    </rdf:RDF>
  </metadata>
  <g
     inkscape:label="Layer 1"
     inkscape:groupmode="layer"
     id="layer1"
     transform="translate(-16.145068,-41.905308)">
    <g
       id="layer1-4"
       inkscape:label="Layer 1"
       transform="matrix(0.84067713,0,0,0.6450373,55.174648,-243.42455)">
      <g
         transform="translate(-1.4127184,-30.87388)"
         inkscape:label="Layer 1"
         id="layer1-9">
        <path
           style="fill:#000000"
           d="m 791.56407,570.38217 c 0.0688,-0.0588 0.59751,-0.19361 1.17501,-0.29958 0.73872,-0.13555 0.91659,-0.10522 0.6,0.10232 -0.40668,0.26659 -2.07252,0.45173 -1.77501,0.19726 z m 2.67501,-0.31552 c 0,-0.25293 1.07421,-0.6432 2.475,-0.89918 0.90336,-0.16507 1.125,-0.11424 1.125,0.25802 0,0.33498 -0.31212,0.46473 -1.125,0.46769 -0.61875,0.002 -1.42875,0.0855 -1.8,0.18499 -0.37125,0.0995 -0.675,0.0943 -0.675,-0.0115 z m -834.750011,-1.23572 c -0.165,-0.0721 -1.245,-0.1673 -2.4,-0.21149 -1.603724,-0.0614 -2.1,-0.1838 -2.1,-0.51806 0,-0.92904 -1.225936,-0.89117 48.450001,-1.49643 27.723082,-0.33778 40.400911,-0.56405 43.950001,-0.78441 3.867249,-0.2401 20.020942,-1.29555 24.750001,-1.61711 18.399774,-1.25111 29.504438,-1.68165 45.449998,-1.76215 11.22621,-0.0567 31.94973,-0.48659 38.55,-0.79973 3.53587,-0.16775 24.72323,-0.6437 39.75,-0.89292 10.10536,-0.16761 19.61288,-0.40948 24.15989,-0.61464 3.73517,-0.16853 46.58191,-0.19698 49.04011,-0.0326 1.155,0.0772 5.745,0.22506 10.2,0.32846 4.455,0.1034 13.7025,0.38154 20.55,0.61809 6.8475,0.23655 18.525,0.50399 25.95,0.59433 7.425,0.0903 13.9725,0.2226 14.55,0.29394 0.5775,0.0713 10.095,0.21561 21.15,0.32061 19.91691,0.18917 41.84643,-0.14459 59.40001,-0.90406 1.98,-0.0857 5.895,-0.22984 8.7,-0.32039 2.805,-0.0905 5.5725,-0.22314 6.15,-0.29466 0.5775,-0.0715 2.67,-0.19771 4.65,-0.28042 3.38877,-0.14156 9.15321,-0.40612 13.2,-0.60582 19.81236,-0.97769 39.6156,-1.50229 69.15,-1.83183 8.4975,-0.0948 16.1925,-0.21944 17.1,-0.27696 0.9075,-0.0575 4.6875,-0.19185 8.4,-0.29853 7.66875,-0.22037 10.01778,-0.30446 21.75,-0.77858 4.62,-0.1867 11.7075,-0.44322 15.75,-0.57003 10.40616,-0.32645 162.14958,0.0399 164.55,0.39722 0.495,0.0737 2.7225,0.2214 4.95,0.32823 2.2275,0.10684 4.75218,0.25831 5.61039,0.33661 0.85821,0.0783 2.34321,0.19877 3.3,0.26771 0.95679,0.0689 4.23402,0.33649 7.28277,0.59454 7.09587,0.60062 12.3897,0.61999 13.2924,0.0486 1.34259,-0.84977 2.40576,-0.8565 3.41355,-0.0216 0.67761,0.56135 0.89079,0.94842 0.77217,1.402 -0.16008,0.61211 -0.27174,0.62218 -4.84257,0.43671 -2.57328,-0.10442 -6.50121,-0.25938 -8.72871,-0.34437 -2.2275,-0.085 -5.13,-0.28344 -6.45,-0.44101 -2.18058,-0.26031 -4.43556,-0.44535 -10.05,-0.8247 -8.59065,-0.58045 -15.07326,-0.69646 -48.45,-0.86705 -17.82,-0.0911 -32.7375,-0.16276 -33.15,-0.15928 -4.31094,0.0363 -20.83437,0.11409 -21.9,0.10303 -4.8111,-0.0499 -29.02185,-0.36165 -30,-0.38628 -0.7425,-0.0187 -3.375,-0.0288 -5.85,-0.0224 -2.475,0.006 -5.445,-0.002 -6.6,-0.0181 -4.34811,-0.0615 -31.71582,0.51406 -37.22277,0.78284 -6.91011,0.33727 -11.83389,0.52397 -25.17723,0.95465 -3.135,0.10119 -5.76927,0.22666 -5.85396,0.27883 -0.21087,0.12991 -17.3076,0.41412 -36.29604,0.60336 -8.6625,0.0863 -16.8975,0.21135 -18.3,0.27781 -3.31377,0.15704 -11.52411,0.40895 -20.55,0.6305 -3.96,0.0972 -7.4025,0.2441 -7.65,0.32643 -0.2475,0.0823 -3.42,0.27033 -7.05,0.41778 -3.63,0.14744 -9.2325,0.40717 -12.45,0.57718 -3.2175,0.17001 -7.4025,0.37616 -9.3,0.45812 -1.8975,0.082 -5.1375,0.2285 -7.2,0.32565 -3.89634,0.18354 -6.83754,0.28823 -16.20001,0.57662 -3.0525,0.094 -9.465,0.29198 -14.25,0.43988 -9.32679,0.28829 -36.41676,0.2244 -52.35,-0.12346 -5.3625,-0.11707 -12.6525,-0.25899 -16.2,-0.31536 -14.35545,-0.22813 -26.06574,-0.47495 -28.05,-0.59121 -1.99011,-0.1166 -8.34246,-0.29987 -20.88687,-0.6026 -3.07278,-0.0742 -7.52778,-0.23273 -9.9,-0.3524 -7.64526,-0.38566 -48.18129,-0.14623 -56.6073,0.33437 -1.20679,0.0688 -7.14679,0.20083 -13.2,0.29333 -6.05321,0.0925 -13.03083,0.23677 -15.50583,0.32059 -5.23289,0.17724 -12.8631,0.36645 -24.45,0.60631 -4.5375,0.0939 -9.6675,0.23331 -11.4,0.30974 -1.7325,0.0764 -7.9425,0.20426 -13.8,0.28408 -25.98337,0.35409 -34.769415,0.49837 -36.449995,0.59858 -0.99,0.059 -4.162503,0.20502 -7.050003,0.32441 -6.91983,0.28613 -7.582887,0.32116 -10.05,0.531 -1.155,0.0982 -3.3825,0.25471 -4.95,0.34772 -1.5675,0.093 -3.39,0.21952 -4.05,0.28113 -2.193117,0.20471 -5.976525,0.49764 -7.8,0.6039 -0.99,0.0577 -4.0275,0.25051 -6.75,0.42847 -12.273811,0.80233 -18.630973,0.9524 -58.6500022,1.38454 -3.795,0.041 -10.3424998,0.15701 -14.5499998,0.25785 -14.224317,0.34091 -22.948597,0.46653 -23.250001,0.33478 z"
           id="path3401"
           inkscape:connector-curvature="0" />
      </g>
      <g
         transform="matrix(1.3375247,0.05995678,-0.05551224,1.2383752,-495.49908,-84.251342)"
         inkscape:label="Layer 1"
         id="layer1-91">
        <path
           style="fill:#000000"
           d="m 370.72691,483.58284 c -0.34436,-0.4836 -0.75198,-1.53144 -0.90583,-2.32852 -0.75232,-3.89782 -4.41085,-14.7315 -5.57461,-16.50763 -0.41237,-0.62935 -0.64756,-0.71932 -1.4747,-0.56415 -1.30025,0.24393 -1.96463,-0.0434 -1.96463,-0.84956 0,-0.83757 0.53851,-1.3779 1.37327,-1.3779 1.05199,0 1.32691,-0.59311 0.87831,-1.89486 -0.21699,-0.62967 -0.60987,-1.3828 -0.87306,-1.67362 -1.1944,-1.31981 -0.25996,-2.25709 1.98062,-1.98663 0.87497,0.10562 2.80586,0.0438 4.29086,-0.13743 1.485,-0.1812 3.9825,-0.46731 5.55,-0.63578 1.5675,-0.16848 2.96609,-0.42137 3.10798,-0.56198 0.3406,-0.33754 -0.64131,-5.51061 -1.35067,-7.11581 -1.03799,-2.34886 -2.35605,-8.32051 -2.3569,-10.6783 -2.7e-4,-0.73773 -0.15979,-1.19558 -0.45619,-1.30932 -0.35566,-0.13648 -0.41599,-0.48041 -0.27464,-1.56558 0.16588,-1.27361 0.0893,-1.50799 -0.90962,-2.78394 -0.9266,-1.18357 -1.2956,-1.42396 -2.452,-1.59737 -1.54413,-0.23156 -2.50796,0.33748 -2.50796,1.4807 0,0.36365 -0.37476,0.92416 -0.8556,1.27965 l -0.85559,0.63257 -2.36941,-0.67017 c -2.90168,-0.82073 -4.62718,-1.92632 -5.82223,-3.73052 -2.14787,-3.2427 -1.89024,-5.11145 0.76308,-5.53486 2.0733,-0.33086 4.69133,-0.0403 6.44873,0.71572 1.42759,0.61413 3.59102,2.60578 3.59102,3.30589 0,0.21135 0.32332,0.27198 0.86871,0.1629 0.60014,-0.12003 1.34565,0.0639 2.41143,0.59503 1.23236,0.61411 1.69232,1.064 2.28635,2.23624 0.40899,0.80711 0.78831,1.46747 0.84294,1.46747 0.0546,0 0.59006,-0.97875 1.18986,-2.175 0.59979,-1.19625 1.76534,-2.87112 2.59012,-3.72193 2.22963,-2.30001 5.52595,-4.60307 6.58829,-4.60307 1.25465,0 1.39007,-0.46401 0.45852,-1.57109 -0.74752,-0.88838 -0.79676,-1.11502 -0.67032,-3.08528 0.16793,-2.61673 1.40112,-5.12443 3.78839,-7.70375 1.94188,-2.0981 3.56963,-2.77322 4.54913,-1.88679 0.33872,0.30654 0.53594,0.76537 0.44803,1.04233 -0.0942,0.29683 0.16104,0.78675 0.63803,1.22467 0.43729,0.40145 1.18104,1.33009 1.65279,2.06364 0.72816,1.13226 0.85773,1.641 0.85773,3.36775 0,2.24655 -0.43265,3.24716 -1.95027,4.51044 -1.36355,1.13502 -2.09123,1.43808 -3.45308,1.43808 -0.95542,0 -1.43393,0.19077 -2.06932,0.825 -0.45459,0.45375 -1.55796,1.08618 -2.45193,1.4054 -4.89763,1.74885 -8.44177,5.17897 -10.02077,9.6984 -0.87368,2.50068 -0.93431,3.9989 -0.29173,7.20885 0.67545,3.37415 0.6349,3.32305 1.65494,2.08556 1.15036,-1.39559 3.51957,-2.49183 5.95554,-2.75565 1.89174,-0.20487 1.96575,-0.24759 4.5,-2.59725 2.68401,-2.48852 4.44953,-3.57031 5.82686,-3.57031 0.81722,0 3.51223,1.2295 4.46267,2.03592 0.30632,0.2599 0.80079,0.36294 1.22762,0.25581 0.5603,-0.14063 0.80418,-0.0122 1.12892,0.5946 0.3709,0.69305 0.35418,0.81788 -0.15995,1.19383 -0.3158,0.23091 -0.78462,0.42115 -1.04184,0.42275 -0.25721,0.002 -1.32488,0.95156 -2.37259,2.11103 -1.04772,1.15946 -2.60022,2.50688 -3.45,2.99427 -2.09029,1.19887 -5.17231,1.26815 -7.34889,0.16519 -0.78862,-0.39963 -1.61067,-0.93963 -1.82676,-1.2 -0.45426,-0.54735 -2.17169,-0.62709 -3.07653,-0.14284 -0.33971,0.18181 -1.39622,1.12624 -2.34781,2.09873 l -1.73014,1.76816 1.53231,4.7899 1.53231,4.78991 1.81022,-0.1657 c 2.62969,-0.2407 10.90485,-1.23737 14.56022,-1.75366 1.7325,-0.24469 3.7927,-0.44782 4.57823,-0.4514 1.66691,-0.008 6.82551,-0.78595 8.26558,-1.24716 0.80241,-0.25699 1.09412,-0.22751 1.51464,0.15306 0.4569,0.41349 0.50969,0.99705 0.43007,4.75447 -0.0499,2.35572 -0.0903,4.44198 -0.0896,4.63613 6e-4,0.19415 -0.2121,0.39665 -0.47271,0.45 -0.53105,0.10871 -2.73198,5.28385 -3.16712,7.447 -0.14937,0.7425 -0.44656,3.68105 -0.66043,6.53012 -0.21584,2.87518 -0.53774,5.329 -0.72344,5.5147 -0.2281,0.2281 -2.36978,0.32031 -6.72987,0.28976 -3.51742,-0.0246 -7.47531,0.0888 -8.79531,0.2522 -1.32,0.16335 -4.0875,0.50098 -6.15,0.75029 -5.12666,0.6197 -12.77542,1.85052 -13.22447,2.12805 -0.12631,0.0781 -0.5114,-0.25375 -0.85576,-0.73736 z m 13.03023,-2.88775 c 4.11756,-0.51966 8.69029,-0.86699 13.2,-1.00262 3.795,-0.11413 7.05783,-0.30546 7.25072,-0.42515 0.50905,-0.31589 0.99928,-2.92199 0.99928,-5.31224 0,-2.65721 0.37374,-4.48897 1.72869,-8.47261 0.7164,-2.10628 0.99417,-3.32453 0.80186,-3.51684 -0.50445,-0.50445 -16.22687,-0.41886 -20.53055,0.11177 -2.0625,0.2543 -6.9225,0.535 -10.8,0.62379 -10.0896,0.23104 -10.36445,0.29805 -9.65933,2.3553 0.17882,0.52172 1.08704,3.10859 2.01827,5.74859 0.93123,2.64 2.06549,6.02776 2.52058,7.52836 0.45508,1.50061 0.93486,2.9022 1.06617,3.11466 0.30391,0.49175 2.89908,0.3204 11.40431,-0.75301 z m -8.73166,-19.51918 c 5.89949,-0.0908 9.82527,-0.30879 13.30673,-0.73898 4.55433,-0.56276 14.32999,-1.23401 18.97493,-1.30292 l 1.95,-0.0289 -0.10623,-2.55 c -0.0584,-1.4025 -0.14057,-2.58714 -0.18254,-2.63254 -0.29135,-0.31514 -7.5367,0.19425 -14.56123,1.02373 -2.0625,0.24355 -6.5175,0.76961 -9.9,1.16902 -3.3825,0.39941 -6.83514,0.72926 -7.67253,0.73299 -2.29596,0.0103 -11.14176,1.71089 -11.77219,2.26325 -0.0521,0.0456 0.0574,0.64789 0.24332,1.33834 0.2682,0.99605 0.44269,1.21398 0.84471,1.05508 0.27868,-0.11015 4.27244,-0.25822 8.87503,-0.32904 z m 17.44757,-19.92688 c 1.04022,-0.39549 3.39661,-2.89015 3.63785,-3.85132 0.1394,-0.55544 0.0136,-0.88399 -0.49647,-1.29705 -1.77642,-1.43846 -3.28156,-0.88119 -6.19223,2.29261 -2.0051,2.18637 -2.25976,2.72773 -1.39006,2.95501 1.0076,0.26331 3.64216,0.20444 4.44091,-0.0992 z m -27.64258,-11.11697 c 1.06677,-1.26777 1.01388,-2.42487 -0.161,-3.5229 -1.64168,-1.53428 -5.5654,-2.00531 -6.57464,-0.78925 -0.30023,0.36176 -0.2711,0.67405 0.15004,1.60796 0.57132,1.26695 1.62061,2.16498 3.55677,3.04402 1.71264,0.77756 2.12781,0.73098 3.02883,-0.33983 z m 24.04433,-10.91744 c 0.32029,-0.24225 1.19494,-0.44475 1.94367,-0.45 1.04577,-0.007 1.5968,-0.20611 2.3771,-0.85754 0.90417,-0.75483 1.02997,-1.04437 1.14506,-2.63552 0.12039,-1.66438 0.059,-1.8797 -0.89131,-3.12563 -0.56134,-0.73596 -1.28422,-1.38386 -1.6064,-1.43979 -0.32218,-0.0559 -0.75816,-0.32356 -0.96885,-0.59474 -0.58855,-0.75755 -1.21224,-0.17242 -2.51598,2.36047 -1.22855,2.38679 -1.43629,3.89369 -0.83517,6.05821 0.34627,1.24689 0.50328,1.32639 1.35188,0.68454 z m 28.63234,-4.20229 c 0,-0.0785 0.2695,-0.58476 0.59888,-1.125 0.64951,-1.0653 0.81642,-0.73301 0.25297,0.50363 -0.29863,0.65541 -0.85185,1.05895 -0.85185,0.62137 z"
           id="path3401-6"
           inkscape:connector-curvature="0" />
      </g>
      <g
         transform="translate(-352.5329,70.322525)"
         inkscape:label="Layer 1"
         id="layer1-3">
        <path
           style="fill:#000000"
           d="m 351.49729,517.88655 c -0.23034,-0.55129 -0.70657,-3.21754 -1.05828,-5.925 -0.55092,-4.24088 -0.60774,-5.64977 -0.41022,-10.17266 0.12609,-2.8875 0.18686,-5.76462 0.13504,-6.39359 -0.12841,-1.5586 -0.75304,-1.27327 -1.00055,0.45704 -0.10728,0.74995 -0.32791,1.61622 -0.4903,1.92505 -0.16239,0.30883 -0.39299,1.169 -0.51244,1.9115 -0.28425,1.76679 -1.04863,4.78251 -1.3634,5.379 -1.55838,2.95313 -2.6087,6.46983 -2.67187,8.946 -0.0197,0.77061 -0.76123,0.91422 -1.03512,0.20046 -0.34664,-0.9033 -0.17892,-2.4707 0.54754,-5.11729 0.40131,-1.46199 0.93345,-3.40067 1.18254,-4.30817 0.2491,-0.9075 0.67686,-2.73 0.95058,-4.05 1.02141,-4.92562 2.40662,-10.04713 3.60184,-13.31698 0.87163,-2.38458 0.8724,-2.02921 -0.0187,-8.58302 -0.0897,-0.66 -0.19303,-1.75301 -0.22954,-2.42891 -0.0808,-1.49621 -0.69996,-2.39117 -1.30618,-1.88806 -0.22561,0.18724 -0.41061,0.49266 -0.41112,0.6787 -6e-4,0.18605 -0.48344,1.28327 -1.07318,2.43827 -0.94749,1.85566 -1.05509,2.29199 -0.9247,3.75 0.27054,3.02525 -0.25652,12.06276 -0.76107,13.05 -0.25298,0.495 -0.627,1.845 -0.83116,3 -0.20416,1.155 -0.50866,2.4375 -0.67665,2.85 -0.29048,0.71326 -0.31731,0.72061 -0.54779,0.15 -0.47137,-1.16697 -0.32077,-5.51172 0.22668,-6.5399 0.6229,-1.16989 1.00965,-9.74381 0.42316,-9.38134 -0.1839,0.11366 -0.33447,0.36743 -0.3346,0.56395 -1.3e-4,0.19651 -0.41861,1.23479 -0.92995,2.30729 -0.51134,1.0725 -1.17757,2.6925 -1.48052,3.6 -0.30295,0.9075 -0.83912,2.3925 -1.1915,3.3 -0.35238,0.9075 -0.91353,2.46 -1.247,3.45 -0.33347,0.99 -0.84606,2.2725 -1.13909,2.85 -1.18219,2.32982 -1.23056,2.50107 -2.01248,7.125 -0.0907,0.53625 -0.27695,0.975 -0.41394,0.975 -0.42193,0 -0.45335,-2.13182 -0.0685,-4.65 0.54818,-3.58716 5.06311,-16.32303 7.5973,-21.43071 0.50501,-1.01785 1.52146,-3.3935 2.25879,-5.27921 0.73733,-1.88571 1.59274,-3.8699 1.90093,-4.40932 0.9119,-1.59609 1.7282,-4.73076 1.23194,-4.73076 -0.16814,0 -0.30571,0.20729 -0.30571,0.46064 0,0.69753 -2.64987,6.10623 -3.74273,7.63936 -0.52927,0.7425 -1.04811,1.5525 -1.15296,1.8 -0.83647,1.97441 -2.8946,4.79745 -5.03042,6.9 -0.93263,0.91811 -2.0461,2.41517 -2.51021,3.375 -0.45875,0.94875 -0.95325,1.725 -1.09889,1.725 -0.14563,0 -0.26479,0.40934 -0.26479,0.90964 0,0.50029 -0.21553,1.41155 -0.47895,2.025 -0.26342,0.61345 -0.67937,2.39786 -0.92432,3.96536 -1.04296,6.67394 -1.18767,7.25408 -1.63389,6.55016 -0.13951,-0.22009 -0.25572,-0.88728 -0.25825,-1.48265 -0.007,-1.66503 1.17466,-9.13327 1.66518,-10.52355 0.24015,-0.68065 0.36149,-1.3127 0.26964,-1.40455 -0.0918,-0.0918 -1.30016,1.03984 -2.68512,2.51488 -1.38497,1.47503 -2.61572,2.58429 -2.73499,2.46501 -0.39963,-0.39962 2.55761,-3.93508 7.9275,-9.47755 2.49642,-2.57666 4.62701,-5.31305 5.51568,-7.08401 0.33333,-0.66426 0.90661,-1.61274 1.27396,-2.10774 0.83637,-1.12699 3.46356,-6.14001 3.46356,-6.60892 0,-0.19145 0.27,-0.59243 0.6,-0.89108 0.82543,-0.747 0.75708,-0.96825 -0.375,-1.21385 -1.23064,-0.26699 -1.52834,-0.72472 -0.91333,-1.4043 0.60839,-0.67225 1.47357,-0.68363 1.84259,-0.0242 0.26242,0.46892 0.37541,0.47174 1.4821,0.037 0.73413,-0.28838 1.35594,-0.36972 1.60583,-0.21007 0.2243,0.14329 2.05586,0.1978 4.07014,0.12112 2.62467,-0.0999 3.72439,-0.039 3.88137,0.21503 0.12048,0.19493 0.23882,1.23752 0.26298,2.31685 0.0548,2.45022 0.84778,4.0961 2.59099,5.37807 0.69879,0.5139 1.40074,0.93436 1.55988,0.93436 0.15915,0 1.3138,0.78952 2.5659,1.7545 1.2521,0.96497 3.15405,2.13769 4.22655,2.60603 3.58477,1.56543 6.86741,4.02528 6.89193,5.16447 0.0116,0.53844 -0.16853,0.47113 -1.02131,-0.38165 -0.72641,-0.72641 -5.51423,-3.16381 -7.07062,-3.59955 -0.4125,-0.11548 -1.66412,-0.87008 -2.78137,-1.67688 -1.11726,-0.80681 -2.16775,-1.46692 -2.33442,-1.46692 -0.16667,0 -0.38075,-0.2025 -0.47572,-0.45 -0.18844,-0.49105 -0.70849,-0.61854 -0.70849,-0.17368 0,0.48377 2.55189,2.85023 5.44689,5.05111 3.39518,2.58112 5.95311,5.08429 5.95311,5.82564 0,0.94639 -0.69538,0.61321 -3.61394,-1.73156 -1.55983,-1.25317 -3.09756,-2.41893 -3.41716,-2.59058 -0.31961,-0.17165 -0.85961,-0.57243 -1.2,-0.89062 -0.3404,-0.3182 -1.2939,-1.02772 -2.1189,-1.57672 -1.75236,-1.16612 -2.92744,-2.56183 -4.43255,-5.26473 -1.14023,-2.04766 -3.05388,-4.16243 -3.42802,-3.78829 -0.75939,0.75939 3.58058,8.58943 4.76087,8.58943 0.95582,0 5.34787,3.51645 8.18346,6.552 1.50745,1.61375 3.45234,3.05952 5.58442,4.15128 1.27884,0.65484 1.49221,0.85669 0.98642,0.93314 -1.07226,0.16207 -3.77064,-0.77485 -5.21579,-1.81102 -0.74823,-0.53647 -2.23305,-1.82885 -3.29961,-2.87196 -1.06656,-1.0431 -2.32608,-2.17717 -2.79892,-2.52015 -0.83181,-0.60335 -0.8494,-0.60431 -0.54182,-0.0296 0.17484,0.3267 0.90447,1.25827 1.62141,2.07015 1.89328,2.14404 3.23013,3.91581 3.23013,4.28101 0,0.17518 0.34083,0.82075 0.75741,1.43461 0.85611,1.26155 0.83266,1.71822 -0.0952,1.85501 -0.50061,0.0738 -0.77409,-0.18907 -1.24993,-1.20137 -0.33502,-0.71271 -0.9136,-1.63272 -1.28575,-2.04447 -3.13714,-3.47093 -5.07487,-5.76147 -5.8663,-6.93439 -0.51427,-0.76216 -1.55513,-2.11216 -2.31301,-2.99999 -1.861,-2.18008 -4.05875,-5.99341 -4.44371,-7.71031 -0.49323,-2.19974 -0.6063,-0.65637 -0.22478,3.06824 0.43586,4.25515 0.55115,4.58399 3.07891,8.7815 1.16188,1.92937 2.25131,3.92158 2.42097,4.42713 0.16966,0.50556 0.41636,1.05896 0.54823,1.2298 0.13187,0.17083 0.64343,1.31872 1.1368,2.55085 0.80833,2.0187 0.89277,2.54425 0.85392,5.31439 -0.0237,1.69078 -0.13333,3.07415 -0.24359,3.07415 -0.42853,0 -0.81452,-0.8074 -1.00394,-2.1 -0.56013,-3.82238 -1.11202,-5.35964 -3.81599,-10.62939 -2.27638,-4.43641 -2.28676,-4.40644 -2.35063,6.78805 -0.0304,5.33024 -0.0774,11.31134 -0.10434,13.29134 -0.027,1.98 0.0486,4.91625 0.16791,6.525 0.22858,3.08164 -0.0282,3.71648 -0.77772,1.92266 z"
           id="path3401-2"
           inkscape:connector-curvature="0" />
      </g>
      <g
         transform="matrix(0.62962139,0,0,0.59161942,-173.41664,171.0045)"
         inkscape:label="Layer 1"
         id="layer1-5">
        <path
           style="fill:#000000"
           d="m 354.52861,614.57693 c -2.36247,-0.48798 -4.70635,-1.57737 -6.53809,-3.03879 -2.3767,-1.89621 -3.30485,-3.11008 -4.77183,-6.24078 -1.13677,-2.42601 -1.17314,-2.59732 -0.89178,-4.2 0.27504,-1.56671 0.0718,-7.41957 -0.43835,-12.62083 -0.10519,-1.0725 -0.16636,-6.82114 -0.13595,-12.77476 0.0394,-7.72038 -0.0733,-12.15121 -0.3931,-15.45 -0.24663,-2.54388 -0.52761,-6.58274 -0.62441,-8.97524 -0.0968,-2.3925 -0.30692,-5.7 -0.46693,-7.35 -0.6513,-6.71584 -0.32704,-34.38887 0.49028,-41.84197 0.20767,-1.89368 1.68248,-5.02162 3.50718,-7.43842 1.27285,-1.68588 5.58236,-5.64585 7.41738,-6.81577 1.55698,-0.99265 1.7795,-1.36391 1.53242,-2.5567 -0.20496,-0.98941 -0.28432,-1.04714 -1.43957,-1.04714 -0.67246,0 -1.23944,-0.10125 -1.25995,-0.225 -0.11082,-0.66848 0.0382,-0.82542 0.7877,-0.82959 1.51557,-0.008 1.64856,-0.27697 1.23873,-2.50124 -0.34726,-1.88464 -0.413,-1.99592 -1.13568,-1.9223 -0.73961,0.0753 -0.77801,-0.004 -1.07256,-2.20764 -0.16802,-1.25718 -0.49287,-2.50846 -0.7219,-2.78063 -0.35953,-0.42728 -0.33917,-0.58019 0.14912,-1.11974 0.46183,-0.51033 0.57558,-1.15553 0.62046,-3.51937 0.0302,-1.59197 0.0644,-3.00513 0.0759,-3.14036 0.0115,-0.13522 0.32469,-0.20272 0.69594,-0.15 0.64253,0.0913 0.68221,0.25462 0.825,3.39587 l 0.15,3.3 1.65,-0.08 c 15.33978,-0.74394 18.52308,-1.04209 26.4,-2.47267 11.81126,-2.14513 23.43291,-3.24238 30.59999,-2.88909 4.65839,0.22963 6,0.44899 6,0.98103 0,0.30399 -0.48734,0.41041 -1.875,0.40945 -4.18724,-0.003 -19.9467,0.34044 -20.925,0.45587 -0.5775,0.0681 -1.7925,0.26725 -2.69999,0.44247 -0.9075,0.17523 -2.6625,0.45056 -3.9,0.61185 -4.02962,0.52521 -5.91342,0.83517 -10.05,1.65361 -2.65387,0.52509 -3.21958,0.60519 -7.35,1.04079 -2.6544,0.27993 -8.53429,0.59233 -13.8,0.7332 -1.2375,0.0331 -2.49488,-0.0609 -2.79418,-0.20897 -0.9672,-0.47839 -1.48596,0.28756 -1.25654,1.85529 0.11004,0.75195 0.32381,1.49527 0.47503,1.65182 0.50581,0.52362 17.01628,-0.16705 21.248,-0.88885 1.94122,-0.33111 3.64585,-0.44325 9.20193,-0.60531 6.04798,-0.17642 27.69134,-0.53146 29.37575,-0.48189 0.495,0.0146 1.9125,-0.10618 3.15,-0.26832 1.2375,-0.16214 3.1076,-0.34196 4.15577,-0.3996 2.05373,-0.11294 2.43196,-0.38668 2.43964,-1.76566 0.003,-0.57813 -0.1525,-0.83244 -0.52041,-0.84985 -0.28875,-0.0137 -1.5375,-0.0706 -2.775,-0.12655 -1.2375,-0.0559 -2.5875,-0.22842 -3,-0.38331 -0.4125,-0.15489 -2.8425,-0.23987 -5.4,-0.18885 -5.32956,0.10634 -7.42415,-0.0722 -6.90765,-0.58889 0.4979,-0.49805 13.85803,-0.46764 14.46155,0.0329 0.6125,0.50802 2.5122,0.71559 3.41336,0.37297 l 0.74246,-0.28228 -0.0583,-4.95558 -0.0583,-4.95558 -1.55779,0 c -0.85679,0 -3.499,0.1923 -5.87158,0.42734 -2.37258,0.23504 -9.37629,0.49969 -15.56379,0.58811 -11.02098,0.1575 -15.07386,0.44345 -21.47456,1.51515 -1.47149,0.24638 -4.16043,0.58971 -5.97543,0.76296 -1.815,0.17324 -4.38,0.44827 -5.7,0.61116 -3.28921,0.4059 -7.48248,0.86308 -9.36974,1.02155 -1.96331,0.16486 -2.22794,0.32931 -1.99884,1.24212 0.25837,1.02942 -0.56006,0.96799 -1.24414,-0.0934 -0.29245,-0.45375 -0.71298,-0.93296 -0.93451,-1.06491 -0.42328,-0.25212 -0.5645,-1.39213 -0.17777,-1.43508 0.12375,-0.0137 1.7775,-0.0769 3.675,-0.14032 1.8975,-0.0634 4.53,-0.25436 5.85,-0.42428 3.43151,-0.44174 9.84252,-1.14554 12.3,-1.35029 1.155,-0.0962 3.315,-0.37047 4.8,-0.60941 5.60266,-0.9015 6.89854,-1.039 6.99999,-0.74273 0.13338,0.38947 0.87268,0.374 1.00435,-0.021 0.14132,-0.42393 8.41855,-0.8625 16.53351,-0.87604 4.3465,-0.007 8.56375,-0.21686 12.58212,-0.62537 7.40393,-0.75268 8.44035,-0.71662 8.58364,0.29862 0.057,0.40379 -0.13431,1.43413 -0.42511,2.28965 -0.48121,1.4157 -0.4958,1.94284 -0.16237,5.86584 0.52849,6.21775 0.48179,6.84399 -0.58308,7.81844 -0.66039,0.60433 -0.88306,1.07711 -0.88306,1.875 0,0.95749 0.0846,1.06962 0.825,1.09337 4.14529,0.13293 5.47711,0.55356 5.07452,1.60268 -0.15533,0.40478 -0.56284,0.44644 -2.73451,0.27951 -2.47367,-0.19014 -2.55982,-0.17495 -2.80776,0.49532 -0.59854,1.61799 0.55364,3.06014 4.16224,5.20977 4.77306,2.8433 6.52989,4.72279 7.43857,7.95792 1.05728,3.76425 1.27257,5.04637 1.69615,10.10131 0.23399,2.79237 0.55707,5.88703 0.71796,6.87703 0.1609,0.99 0.36402,3.3525 0.45139,5.25 0.0874,1.8975 0.30101,4.935 0.47476,6.75 0.17375,1.815 0.38252,4.5825 0.46393,6.15 0.27193,5.23567 0.73837,11.81912 1.05214,14.85 0.77609,7.49687 0.45465,26.27181 -0.5804,33.9 -0.51351,3.78454 -0.50103,22.32094 0.0164,24.37591 0.34663,1.3766 0.20963,1.89152 -1.36515,5.13081 -0.76206,1.56755 -2.15174,2.42843 -5.32058,3.296 -6.06926,1.66166 -13.39027,2.36925 -26.66468,2.57722 -5.36249,0.084 -11.36999,0.28372 -13.34999,0.44379 -9.90656,0.80087 -35.09552,1.42332 -37.5,0.92667 z m 25.95,-2.24517 c 5.41912,-0.15005 13.58781,-0.60681 18.74999,-1.04843 1.815,-0.15527 5.6625,-0.23402 8.55,-0.17501 7.08671,0.14484 15.49177,-0.47612 20.52826,-1.5166 2.11775,-0.4375 5.33178,-1.69501 6.20574,-2.42803 0.43754,-0.36697 0.74482,-1.83111 1.01655,-4.84372 0.0499,-0.55361 0.18228,-1.61663 0.29409,-2.36227 0.3833,-2.556 0.5106,-6.47557 0.48495,-14.93117 -0.007,-2.31 0.11499,-5.3475 0.27111,-6.75 0.15612,-1.4025 0.42006,-4.845 0.58654,-7.65 0.16648,-2.805 0.44559,-7.26 0.62026,-9.9 0.31371,-4.74154 0.24325,-6.89821 -0.61751,-18.9 -0.16567,-2.31 -0.42667,-7.10693 -0.58001,-10.65983 -0.15334,-3.55291 -0.34973,-6.65791 -0.43643,-6.9 -0.0867,-0.24209 -0.36633,-3.18061 -0.62141,-6.53004 -0.25508,-3.34944 -0.65859,-7.33194 -0.89669,-8.85 -0.2381,-1.51807 -0.63437,-4.45507 -0.8806,-6.52667 -0.69339,-5.83358 -1.93824,-9.27937 -4.13066,-11.43383 -1.4293,-1.40455 -6.18637,-4.44963 -6.95126,-4.44963 -0.74134,0 -1.90682,-1.68013 -2.76926,-3.99207 l -0.87367,-2.34206 -3.15,0.12161 c -3.56487,0.13763 -9.15169,0.57563 -17.7,1.38764 -3.2175,0.30563 -6.48791,0.51126 -7.26759,0.45695 -0.77968,-0.0543 -1.49639,0.0288 -1.5927,0.1846 -0.26906,0.43534 -1.0397,0.33591 -1.0397,-0.13415 0,-0.55355 0.81935,-0.73302 4.85993,-1.0645 1.86453,-0.15296 3.99756,-0.40998 4.74006,-0.57117 0.7425,-0.16118 2.6325,-0.38121 4.2,-0.48895 1.5675,-0.10775 4.335,-0.39222 6.15,-0.63216 1.815,-0.23994 4.9875,-0.53514 7.05,-0.656 l 3.75,-0.21974 0.0933,-1.12837 0.0933,-1.12837 -13.8933,-0.007 c -7.64132,-0.004 -14.16331,-0.0346 -14.49331,-0.0679 -0.59374,-0.0598 -8.98518,0.28614 -12.75,0.52563 -1.0725,0.0682 -3.705,0.32929 -5.85,0.58014 -3.19763,0.37396 -7.6291,0.68937 -16.65,1.18507 -0.87317,0.048 -1.07007,0.83895 -0.67747,2.72152 l 0.24614,1.18031 4.64067,-0.0361 c 3.37129,-0.0262 4.88683,0.077 5.54066,0.37721 0.84894,0.38983 0.75534,0.41387 -1.65,0.42379 -2.47938,0.0102 -8.09091,0.51533 -8.32492,0.74934 -0.064,0.064 0.0257,0.88503 0.19942,1.82453 0.43232,2.33863 0.018,3.05251 -2.52488,4.35028 -1.71917,0.87738 -5.83834,4.54895 -7.34188,6.54408 -2.57796,3.42085 -2.75644,3.97526 -3.19582,9.92758 -0.50724,6.87163 -0.79405,32.35903 -0.40206,35.72862 0.16316,1.4025 0.42137,5.1825 0.57381,8.4 0.15244,3.2175 0.50026,7.4025 0.77293,9.3 0.39163,2.72527 0.49703,5.87627 0.50176,15 0.003,6.3525 0.13337,12.9 0.28905,14.55 0.15567,1.65 0.32369,5.67026 0.37337,8.93392 l 0.0903,5.93391 0.99683,1.41609 c 1.96426,2.79042 5.58701,5.62584 7.94208,6.21601 2.5706,0.64419 11.10576,0.74124 26.85,0.3053 z m 4.99445,-130.19757 c -0.13596,-0.35429 0.0425,-0.45231 0.78996,-0.43397 0.53107,0.013 0.76309,0.0987 0.51559,0.19028 -0.2475,0.0916 -0.60299,0.28691 -0.78997,0.43397 -0.21633,0.17014 -0.40383,0.10094 -0.51558,-0.19028 z m -3.86945,-0.35634 c 0.20625,-0.0832 0.54375,-0.0832 0.75,0 0.20625,0.0832 0.0375,0.15131 -0.375,0.15131 -0.4125,0 -0.58125,-0.0681 -0.375,-0.15131 z m -28.73875,-12.72702 c -0.43874,-0.81979 -0.19199,-1.0178 1.3155,-1.0556 11.72678,-0.29408 14.11353,-0.54048 21.26962,-2.19576 2.43221,-0.5626 5.34339,-0.89331 13.42863,-1.52551 2.2275,-0.17418 5.73749,-0.46277 7.79999,-0.64132 5.60236,-0.485 17.40138,-0.67473 17.79005,-0.28607 0.17597,0.17598 0.24098,0.39893 0.14446,0.49546 -0.34745,0.34744 -4.38574,0.70238 -9.68451,0.8512 -2.97,0.0834 -7.965,0.33723 -11.1,0.56404 -3.13499,0.22681 -6.03749,0.41829 -6.44999,0.42552 -2.0382,0.0357 -9.53714,0.73517 -10.47809,0.97735 -3.51831,0.90555 -6.99969,1.64962 -7.32246,1.56502 -0.13781,-0.0361 -1.62281,0.13225 -3.3,0.37413 -1.6772,0.24189 -4.60195,0.45347 -6.49945,0.47017 -1.8975,0.0167 -3.99,0.15691 -4.65,0.31156 -1.70104,0.3986 -1.88834,0.37128 -2.26375,-0.33019 z"
           id="path3405"
           inkscape:connector-curvature="0" />
      </g>
      <g
         transform="matrix(0.80736773,0,0,0.82262207,-141.04902,84.29209)"
         inkscape:label="Layer 1"
         id="layer1-8">
        <path
           style="fill:#000000"
           d="m 324.86076,543.99471 c -1.77505,-1.38887 -2.00883,-2.31996 -2.23675,-8.90827 -0.11394,-3.29366 -0.27291,-6.09649 -0.35327,-6.2285 -0.23602,-0.3877 -0.0981,-21.46933 0.15489,-23.67015 0.12707,-1.10559 0.14031,-3.71942 0.0294,-5.8085 -0.11089,-2.08909 -0.15597,-6.18283 -0.10016,-9.0972 0.0826,-4.31341 0.21871,-5.68803 0.73195,-7.39149 1.02837,-3.4132 1.84293,-5.28606 3.12828,-7.19264 1.12046,-1.662 1.45498,-1.92002 4.36349,-3.36551 3.5074,-1.74313 5.11663,-2.18449 7.96477,-2.18449 l 1.93523,0 0.0462,-1.2 c 0.14804,-3.84898 0.16447,-3.75534 -0.64615,-3.68398 -0.4125,0.0363 -1.24031,0.15046 -1.83957,0.25368 -0.75631,0.13027 -1.1661,0.0642 -1.33978,-0.21601 -0.33359,-0.53818 -0.37888,-4.03005 -0.0698,-5.38079 0.22853,-0.9987 0.37212,-1.11231 1.9728,-1.56085 0.94949,-0.26607 2.91011,-0.5586 4.35693,-0.65008 3.41034,-0.21563 8.97448,-1.04125 9.40638,-1.39574 0.88524,-0.72657 1.91303,0.5391 1.91303,2.3558 0,0.6388 0.27943,1.98892 0.62097,3.00026 0.71317,2.11181 0.47358,3.07771 -0.76342,3.07771 -0.6168,0 -0.73498,0.16303 -0.81549,1.125 -0.0518,0.61875 -0.006,1.53 0.10277,2.025 0.10832,0.495 0.28043,1.27253 0.38248,1.72785 l 0.18555,0.82785 5.46857,-0.0779 5.46857,-0.0779 1.74349,1.16645 c 5.73445,3.83651 7.35384,9.09423 7.38895,23.98995 0.009,3.81898 -0.11507,9.0361 -0.27572,11.5936 -0.16064,2.5575 -0.36011,6.54 -0.44326,8.85 -0.0831,2.31 -0.35919,6.765 -0.61342,9.9 -0.25423,3.135 -0.44431,8.07995 -0.42241,10.98878 0.0522,6.93675 0.05,6.94192 -3.18042,7.2106 -1.31847,0.10966 -6.34911,0.20489 -11.17921,0.21162 -4.83011,0.007 -8.94157,0.11086 -9.13659,0.23139 -0.19502,0.12053 -5.46116,0.2278 -11.70252,0.23838 l -11.34794,0.0192 -0.89879,-0.70325 z m 34.66784,-1.72225 c 2.97,-0.11276 6.41216,-0.36134 7.64924,-0.55239 2.6263,-0.40561 2.60316,-0.3651 2.66839,-4.67211 0.0212,-1.4025 0.29132,-6.195 0.60015,-10.65 0.30885,-4.455 0.56548,-8.37 0.57031,-8.7 0.005,-0.33 0.15439,-4.65 0.33235,-9.6 0.53545,-14.89336 -0.0514,-25.25321 -1.65563,-29.2292 -0.816,-2.02239 -3.31448,-4.90117 -5.01852,-5.78243 -1.08492,-0.56107 -1.61533,-0.62819 -4.09629,-0.51835 -3.65292,0.16171 -7.27684,0.10103 -8.22834,-0.13778 -0.57929,-0.14539 -0.78522,-0.43722 -0.92417,-1.30966 -0.68299,-4.28831 -1.20276,-6.3432 -1.63289,-6.45558 -1.12517,-0.29398 -6.00149,-0.0501 -6.37019,0.3186 -0.25129,0.25128 -0.42473,1.52848 -0.49791,3.66669 -0.10149,2.96498 -0.18173,3.35601 -0.83281,4.05854 -0.56319,0.60769 -0.86714,0.72413 -1.3921,0.5333 -0.36937,-0.13427 -1.81909,-0.24413 -3.22159,-0.24413 -2.55733,0 -3.1917,0.182 -7.17492,2.05849 -1.92131,0.90513 -3.41115,3.29232 -4.85143,7.7735 -0.82887,2.57887 -0.85563,2.85821 -0.84942,8.86539 0.004,3.41144 0.11655,6.77724 0.25116,7.47955 0.13461,0.70231 0.12562,2.99731 -0.02,5.1 -0.29115,4.20457 -0.34637,16.78995 -0.12073,27.51873 0.12696,6.03724 0.22311,7.10449 0.77235,8.57313 0.46268,1.23721 0.83935,1.76201 1.43515,1.9996 0.86894,0.3465 22.66082,0.28376 32.60782,-0.0939 z m -19.54543,-79.251 c 0.1449,-0.23445 -0.81474,-1.5735 -1.12766,-1.5735 -0.24346,0 -0.22394,1.35297 0.0231,1.6 0.26951,0.26952 0.93144,0.25363 1.10457,-0.0265 z m 4.39543,-2.79121 c 0,-0.58426 -0.15201,-0.88229 -0.45,-0.88229 -0.48249,0 -0.54779,0.35458 -0.2618,1.42163 0.24346,0.90834 0.7118,0.55348 0.7118,-0.53934 z m 4.8,-0.25019 c 0,-0.75007 -0.15756,-1.22837 -0.44039,-1.3369 -0.61695,-0.23674 -0.76535,0.13697 -0.5591,1.40794 0.2468,1.52085 0.99949,1.46735 0.99949,-0.071 z m 2.88125,-1.45085 c -0.30496,-0.30495 -0.55658,0.15417 -0.30637,0.55901 0.18901,0.30583 0.25968,0.30607 0.36129,0.001 0.0695,-0.20843 0.0448,-0.46053 -0.0549,-0.56022 z"
           id="path3466"
           inkscape:connector-curvature="0" />
      </g>
      <g
         transform="translate(190.40773,5.9155028)"
         inkscape:label="Layer 1"
         id="layer1-32">
        <path
           style="fill:#000000"
           d="m 396.63572,521.89765 c -0.7425,-0.1431 -3.915,-0.33129 -7.05,-0.4182 -3.135,-0.0869 -7.2525,-0.2307 -9.15,-0.31953 -6.14774,-0.28776 -21.24277,-0.36111 -29.7,-0.1443 -4.5375,0.11632 -8.5875,0.12158 -9,0.0117 -0.4125,-0.10989 -0.90214,-0.50354 -1.08808,-0.87478 -0.18595,-0.37124 -0.62198,-0.87383 -0.96897,-1.11687 -0.34698,-0.24304 -1.22158,-1.27989 -1.94355,-2.30411 -3.59341,-5.09777 -5.22665,-11.61301 -3.98331,-15.88998 0.65436,-2.2509 0.58213,-2.21299 6.33391,-3.32369 8.73556,-1.68687 10.27238,-1.8155 21.45,-1.79524 7.857,0.0142 11.63345,0.14425 14.4,0.49576 2.0625,0.26206 5.37,0.6834 7.35,0.93631 1.98,0.25291 4.16478,0.46091 4.85507,0.46223 1.14686,0.002 1.26326,-0.0687 1.35,-0.8226 0.0724,-0.62947 0.3264,-0.89982 1.0716,-1.14069 0.53717,-0.17363 2.08791,-1.32113 3.44609,-2.55 4.73028,-4.2799 10.88338,-10.15694 11.77724,-11.24884 1.15474,-1.41059 5.31082,-4.85939 6.31691,-5.2419 0.83067,-0.31582 1.77776,0.003 2.0124,0.67799 0.0724,0.20814 -0.10442,1.05344 -0.39289,1.87844 -0.28846,0.825 -0.89724,2.9175 -1.35282,4.65 -1.84794,7.0273 -3.0568,9.70931 -6.01074,13.33558 -1.1978,1.47043 -1.35216,1.80779 -1.08194,2.36476 0.59185,1.21994 1.07485,4.8458 1.09197,8.19734 l 0.0171,3.34769 -1.65,3.2428 c -0.9075,1.78354 -2.06637,3.85458 -2.57527,4.60231 -0.50891,0.74774 -1.11741,1.76452 -1.35225,2.25952 -0.36215,0.76338 -0.60877,0.90671 -1.62472,0.94425 -0.65876,0.0243 -1.80526,-0.0728 -2.54776,-0.21594 z m 2.1,-2.83341 c 1.07634,-0.67696 3.27115,-4.20136 4.76084,-7.6449 0.64881,-1.49978 0.70034,-1.95044 0.56591,-4.95 -0.17609,-3.92953 -0.66512,-5.37417 -1.91923,-5.66968 -0.47164,-0.11113 -2.34252,-0.32149 -4.15752,-0.46747 -4.6696,-0.37557 -17.08587,-1.70295 -21,-2.24504 -7.12285,-0.98648 -21.0342,-1.22828 -27.3,-0.47451 -4.57892,0.55084 -9.70948,1.65501 -11.6037,2.49728 -1.43656,0.63878 -1.67796,0.85595 -1.53959,1.38509 0.0903,0.34514 0.0308,0.79556 -0.13219,1.00093 -1.04481,1.31673 -0.56652,5.49959 1.03751,9.0734 1.58935,3.54109 2.56256,4.82225 4.2198,5.55507 0.77999,0.3449 1.75678,0.95134 2.17063,1.34765 0.71603,0.68565 0.97027,0.72482 5.25,0.80891 2.47365,0.0486 5.84754,0.0486 7.49754,-4e-5 4.17129,-0.12292 30.23597,0.22438 30.41688,0.40529 0.0812,0.0812 2.51818,0.12312 5.41541,0.0931 4.85805,-0.0504 5.34937,-0.106 6.31771,-0.71505 z m 3.3,-21.7449 c 0.1351,-0.9457 0.2543,-1.06013 1.2,-1.15199 1.12606,-0.10938 2.28279,-1.35002 4.00993,-4.30083 0.93755,-1.6018 4.18716,-11.54739 3.91621,-11.98578 -0.20695,-0.33487 -2.89612,1.89067 -4.89931,4.05463 -3.38912,3.66113 -12.08781,11.748 -13.86351,12.88843 -1.22696,0.788 -1.07408,1.09225 0.56168,1.11777 0.78375,0.0122 2.0325,0.13281 2.775,0.26796 0.7425,0.13514 2.43,0.22638 3.75,0.20276 l 2.4,-0.0429 0.15,-1.05 z"
           id="path3401-7"
           inkscape:connector-curvature="0" />
      </g>
      <g
         transform="matrix(0.81676284,0,0,0.82753845,341.18431,82.84687)"
         inkscape:label="Layer 1"
         id="layer1-6">
        <path
           style="fill:#000000"
           d="m 367.57856,537.48506 c -2.0625,-0.10139 -4.13004,-0.33764 -4.59453,-0.525 -0.51323,-0.20703 -2.80814,-0.34029 -5.85,-0.33969 -5.06335,9e-4 -5.07869,-10e-4 -11.45547,-1.55541 -0.5775,-0.14076 -1.3875,-0.53863 -1.8,-0.88416 -0.72024,-0.60329 -0.74807,-0.75485 -0.70144,-3.81981 0.0267,-1.75538 0.14845,-4.6091 0.27054,-6.3416 0.24962,-3.54241 0.27919,-6.61438 0.10398,-10.8 -0.10067,-2.40477 0.30961,-11.6984 0.78138,-17.7 0.0713,-0.9075 0.1827,-8.06802 0.24748,-15.91226 0.12536,-15.18219 0.1288,-15.21758 1.60724,-16.55555 1.43883,-1.30212 6.81013,-2.4812 13.334,-2.92699 2.69875,-0.18442 5.27358,-0.47805 5.72184,-0.65252 1.00701,-0.39193 1.23228,-1.04902 0.96672,-2.81985 -0.19549,-1.30368 -0.28748,-1.4122 -1.77277,-2.09159 l -1.56659,-0.71657 -0.34998,-3.83733 c -0.19249,-2.11054 -0.25878,-4.70759 -0.1473,-5.77123 0.17316,-1.65221 0.34769,-2.0789 1.19823,-2.92944 0.871,-0.871 1.13697,-0.97489 2.1261,-0.83046 0.62182,0.0908 2.68307,-0.018 4.58057,-0.24178 1.8975,-0.22377 4.665,-0.36714 6.15,-0.31859 1.485,0.0485 3.4425,-0.0403 4.35,-0.19749 0.9075,-0.15716 4.1475,-0.3565 7.2,-0.44296 3.0525,-0.0865 8.8575,-0.29009 12.9,-0.4525 12.82947,-0.51544 22.2851,-0.69904 24.37736,-0.47334 2.67231,0.28829 2.78665,0.50442 2.33268,4.40929 -0.19016,1.63572 -0.39758,4.80851 -0.46093,7.05064 -0.0634,2.24213 -0.20305,4.16299 -0.31043,4.26856 -0.10738,0.10558 -1.59761,0.17251 -3.31163,0.14873 l -3.11639,-0.0432 -0.27327,0.98971 c -0.47485,1.71976 0.2534,3.54851 1.72398,4.32916 0.75114,0.39874 3.36255,0.22176 4.80173,-0.32541 1.82,-0.69196 5.02452,-0.35126 9.66045,1.02711 3.44149,1.02323 4.64115,2.32613 6.09683,6.62154 1.17805,3.47616 2.14911,14.34987 1.66396,18.63257 -0.97779,8.6315 -1.25927,33.53963 -0.43532,38.52133 0.25558,1.54525 0.58873,4.65025 0.74035,6.9 0.22473,3.33481 0.19991,4.16744 -0.13433,4.5072 -0.33698,0.34255 -2.43044,0.40961 -11.75751,0.37661 -10.97433,-0.0388 -20.25281,0.30672 -22.74257,0.84694 -0.66273,0.1438 -3.56297,0.34993 -6.44498,0.45806 -2.88202,0.10813 -5.37952,0.28308 -5.55,0.38876 -0.39902,0.24735 -25.23053,0.27085 -30.15998,0.0285 z m 32.25,-2.06886 c 3.63,-0.18025 7.68,-0.4622 9,-0.62656 4.1756,-0.51991 10.8386,-0.88432 19.2,-1.05008 4.455,-0.0883 9.24263,-0.18523 10.63919,-0.21537 l 2.53919,-0.0548 0.24072,-1.35 c 0.22084,-1.23852 -0.22533,-7.92466 -0.56555,-8.47516 -0.45596,-0.73776 0.12552,-31.36987 0.67057,-35.32484 0.0796,-0.5775 0.22335,-3.38186 0.31947,-6.23192 0.13415,-3.97761 0.0658,-5.82525 -0.29432,-7.95 -0.25799,-1.52244 -0.55562,-3.56458 -0.66138,-4.53808 -0.21613,-1.98926 -1.93761,-5.67115 -2.96392,-6.3392 -1.18927,-0.77412 -6.1177,-2.2408 -7.52972,-2.2408 -0.77949,0 -2.85112,0.21291 -4.60364,0.47313 -4.44944,0.66068 -5.39789,0.46948 -6.96686,-1.40448 l -1.25494,-1.49889 0.17204,-2.53488 c 0.1257,-1.8522 0.076,-2.53671 -0.18441,-2.54169 -0.19604,-0.004 -2.04394,-0.15638 -4.10644,-0.3392 -2.0625,-0.18282 -8.9475,-0.38059 -15.3,-0.4395 -6.3525,-0.0589 -12.63,-0.12502 -13.95,-0.14691 -2.97613,-0.0494 -10.31431,0.48312 -13.4331,0.97474 -2.71081,0.42731 -2.88445,0.67383 -2.33585,3.31638 0.44741,2.15516 -0.0744,3.73335 -1.50741,4.55891 -0.88131,0.50772 -1.85793,0.61999 -7.02364,0.80739 -4.96275,0.18003 -6.47317,0.34515 -8.73706,0.95518 -3.3134,0.89281 -3.35731,0.91826 -3.93693,2.28144 -0.39282,0.92387 -0.47565,3.41224 -0.54793,16.46245 -0.0527,9.50669 -0.20903,15.97551 -0.40974,16.95 -0.34719,1.68565 -0.46285,12.29644 -0.28041,25.72593 l 0.11207,8.25 2.55,0.8649 c 2.3908,0.8109 2.89649,0.8704 8.1,0.95317 3.0525,0.0486 6.63,0.27077 7.95,0.49381 3.15136,0.53247 26.02478,0.68557 35.1,0.23493 z m -32.25,-83.13878 c 0,-0.54929 -1.32426,-2.91664 -1.55259,-2.77553 -0.45605,0.28186 -0.27631,2.47151 0.22595,2.75259 0.5917,0.33113 1.32664,0.34384 1.32664,0.0229 z m 57.41025,-4.15803 c 0.40654,-6.32668 0.39704,-6.94929 -0.11025,-7.21802 -0.2475,-0.13111 -2.22586,-0.40384 -4.39635,-0.60608 -3.11501,-0.29024 -6.62249,-0.29028 -16.65,-1.9e-4 -6.98701,0.20213 -15.20115,0.50593 -18.25365,0.6751 -3.0525,0.16917 -7.44,0.34238 -9.75,0.3849 -4.19556,0.0772 -10.76636,0.90786 -11.475,1.45057 -0.5419,0.415 -0.4937,2.61372 0.0573,2.61372 0.23777,0 0.51845,-0.1394 0.62376,-0.30979 0.12257,-0.19832 0.53373,-0.10832 1.1427,0.25012 0.52319,0.30795 1.16616,0.50906 1.42884,0.44692 0.80282,-0.18993 1.31881,0.70282 0.91652,1.58575 -0.18926,0.41538 -0.34411,1.29177 -0.34411,1.94755 0,0.98067 0.13312,1.25297 0.75,1.53404 0.4125,0.18794 0.75,0.5307 0.75,0.76167 0,0.30184 0.31643,0.39377 1.125,0.32685 1.10126,-0.0911 1.12183,-0.11526 0.975,-1.14311 -0.0825,-0.5775 -0.15,-2.09166 -0.15,-3.3648 0,-1.80116 0.11602,-2.43071 0.52286,-2.83715 0.90364,-0.90275 1.18661,-0.11168 1.23357,3.44852 0.024,1.81705 0.12951,3.38959 0.23454,3.49455 0.10504,0.10495 1.99504,0.064 4.2,-0.091 4.25954,-0.29944 6.98028,-0.27888 13.40482,0.10132 l 3.99578,0.23647 -0.79828,-1.16895 c -0.65709,-0.9622 -0.77517,-1.41586 -0.66761,-2.56496 0.14382,-1.53647 1.22896,-3.20987 2.09932,-3.23739 0.70366,-0.0222 0.66508,0.66364 -0.075,1.3334 -0.73257,0.66297 -0.82907,3.03247 -0.15954,3.91766 0.24225,0.32029 0.44467,0.78484 0.44982,1.03234 0.008,0.38589 0.96034,0.45161 6.68454,0.4613 8.49706,0.0144 19.72845,0.34197 19.96892,0.58244 0.10158,0.10158 0.59455,0.14455 1.09548,0.0955 l 0.91078,-0.0892 0.26025,-4.05 z m -47.34466,2.52273 c -0.28371,-0.28371 -0.63953,-0.84118 -0.79072,-1.23881 -0.63794,-1.67793 0.0304,-5.63392 0.9519,-5.63392 0.33347,0 0.40045,0.43444 0.31583,2.04854 -0.0591,1.12669 0.0618,2.65283 0.26859,3.39141 0.44265,1.581 0.0867,2.26506 -0.7456,1.43278 z m 11.697,-0.79773 c -0.25402,-0.60882 -0.3462,-1.53836 -0.24546,-2.475 0.17271,-1.60568 0.50765,-2.25 1.1696,-2.25 0.30593,0 0.41575,0.48702 0.42281,1.875 0.006,1.1291 0.17656,2.09545 0.4294,2.42916 0.56239,0.7423 0.26445,1.39584 -0.63635,1.39584 -0.54376,0 -0.83831,-0.25192 -1.14,-0.975 z m 11.44009,0.75 c -0.2305,-0.39072 -0.19074,-3.04697 0.0478,-3.1944 0.12549,-0.0776 0.39792,-0.0361 0.60541,0.0921 0.26974,0.16671 0.31876,0.67403 0.17203,1.78021 -0.18803,1.41742 -0.48672,1.89592 -0.82525,1.32205 z m -19.38393,-0.50241 c -0.7776,-0.93695 -0.23113,-4.30948 0.89397,-5.51713 0.63249,-0.6789 1.18728,-0.64361 1.18728,0.0755 0,0.21756 -0.2129,0.57226 -0.47312,0.78822 -0.36184,0.3003 -0.44664,0.82054 -0.36054,2.21173 0.0619,1.0005 0.17357,2.01838 0.24812,2.26196 0.18774,0.61345 -1.01573,0.75805 -1.49571,0.17971 z m 4.66036,-0.54759 c -1.41165,-2.19189 -0.55782,-5.325 1.45117,-5.325 0.60076,0 0.61703,1.07928 0.0197,1.30849 -0.99791,0.38293 -0.40171,3.15761 0.76181,3.54545 0.17739,0.0591 0.23286,0.34118 0.12326,0.62678 -0.29834,0.77745 -1.81973,0.67689 -2.35596,-0.15572 z"
           id="path3417"
           inkscape:connector-curvature="0" />
      </g>
      <g
         transform="matrix(0.86961399,0,0,0.87291996,573.99469,163.65372)"
         inkscape:label="Layer 1"
         id="layer1-62">
        <path
           style="fill:#000000"
           d="m 91.653564,540.25637 c -1.68244,-0.61448 -0.71142,-1.2994 2.48485,-1.75271 2.11196,-0.29954 3.17314,-0.80643 4.30098,-2.05445 0.45339,-0.5017 0.52164,-0.8819 0.35628,-1.98461 -0.2344,-1.56313 0.25325,-2.01763 1.467546,-1.36776 0.85964,0.46006 2.32202,0.17431 3.01249,-0.58865 0.3685,-0.40718 0.45274,-0.82071 0.30458,-1.49528 -0.30865,-1.40524 0.24821,-1.88881 1.92721,-1.67353 1.09602,0.14053 1.61127,0.0377 2.56852,-0.51239 0.65859,-0.37849 1.23395,-0.88702 1.27856,-1.13006 0.0446,-0.24303 -0.4002,-0.76797 -0.98847,-1.16652 -0.58826,-0.39856 -1.20885,-0.98488 -1.37907,-1.30295 -0.45779,-0.85538 -0.076,-1.92786 0.76104,-2.13795 0.39861,-0.10005 0.94525,-0.26652 1.21476,-0.36994 0.33449,-0.12836 0.86504,0.21819 1.67161,1.09187 l 1.18161,1.2799 1.43125,-0.5449 c 2.41883,-0.92088 3.51187,-2.46803 4.39732,-6.2242 0.80374,-3.40957 0.80971,-2.97567 -0.11229,-8.16719 -0.46624,-2.62527 -0.4426,-4.86314 0.0635,-6.01393 1.19892,-2.72595 3.3028,-4.86239 6.08268,-6.17682 0.825,-0.39009 1.5,-0.85441 1.5,-1.03184 0,-0.49611 -1.71035,-2.52741 -2.12808,-2.52741 -0.2036,0 -1.22216,0.43605 -2.26346,0.969 -3.38328,1.7316 -7.40804,1.44714 -8.33584,-0.58915 -0.65585,-1.43943 -0.40169,-2.78443 0.72738,-3.84928 1.03282,-0.97408 1.2795,-1.48326 0.81416,-1.68057 -0.53283,-0.22593 -1.56416,-2.04548 -1.56416,-2.75963 0,-0.93961 1.06488,-1.99037 2.01712,-1.99037 0.3872,0 1.04703,0.22477 1.46631,0.49949 l 0.76233,0.4995 -0.20688,-1.10278 c -0.25239,-1.34533 0.054,-1.76581 1.67697,-2.30144 1.19943,-0.39585 1.23912,-0.38614 1.9435,0.47556 0.39549,0.48382 0.72393,1.11592 0.72986,1.40467 0.0184,0.89291 0.55112,0.58365 1.35365,-0.78576 0.51473,-0.87832 1.36084,-1.67659 2.56461,-2.41959 2.79221,-1.72345 3.82261,-0.97076 2.70314,1.97461 -0.33567,0.88316 -0.61038,1.63949 -0.61046,1.68074 -8e-5,0.0412 0.46271,0.075 1.02842,0.075 1.58104,0 2.99351,1.84957 2.81401,3.68485 -0.0811,0.82941 -0.39773,1.13354 -2.55663,2.4559 -2.44193,1.4957 -2.90501,2.03425 -2.03595,2.36774 0.27572,0.1058 0.45,0.56077 0.45,1.17476 0,0.55114 0.17495,1.24133 0.38878,1.53376 0.3679,0.50313 0.54115,0.506 3.225,0.0533 2.34489,-0.3955 5.20086,-0.46936 16.48622,-0.42636 7.5075,0.0286 14.3925,-0.0373 15.3,-0.1465 0.9075,-0.10918 2.46,-0.27931 3.45,-0.37808 2.16303,-0.2158 5.10072,-0.86369 7.35,-1.62101 2.37977,-0.80125 6.44721,-2.57555 7.4173,-3.23559 0.45798,-0.3116 1.83543,-1.21273 3.061,-2.0025 4.41034,-2.84209 6.42711,-5.2257 9.59429,-11.33945 l 2.13909,-4.12916 -1.0376,-1.0376 c -0.57068,-0.57068 -1.95706,-1.4779 -3.08084,-2.01603 -1.81259,-0.86798 -2.3311,-0.97833 -4.59324,-0.97752 -5.44763,0.002 -6.64945,0.60011 -9.22381,4.59071 -2.75632,4.27264 -7.55469,8.60325 -10.40844,9.39381 -2.77414,0.76851 -4.04725,0.39323 -4.78277,-1.4098 -0.48437,-1.18738 -0.51393,-1.5556 -0.2071,-2.57974 0.35183,-1.17428 2.70829,-3.92277 3.62212,-4.22469 0.2475,-0.0818 0.3793,-0.2266 0.2929,-0.32185 -0.0864,-0.0953 -0.95111,0.0888 -1.92157,0.40893 -0.97046,0.32016 -2.04726,0.5816 -2.3929,0.58098 -1.0572,-0.002 -2.48941,-1.09014 -3.3361,-2.53491 -0.7669,-1.30861 -0.78171,-1.40919 -0.31285,-2.12475 0.80222,-1.22435 2.74615,-2.443 4.97857,-3.12108 1.15057,-0.34947 2.09195,-0.80103 2.09195,-1.00346 0,-0.20242 -0.49267,-0.77228 -1.09483,-1.26636 -1.6291,-1.3367 -2.19307,-1.97913 -2.82961,-3.22332 -2.08767,-4.08059 -2.05353,-3.95512 -1.20049,-4.41166 0.45829,-0.24526 1.14369,-0.0247 3.375,1.08608 1.53996,0.76662 3.53066,1.91286 4.42377,2.54721 1.72653,1.22632 2.71841,1.43566 3.3271,0.70224 0.20592,-0.24813 0.5829,-2.14318 0.83773,-4.21122 0.49449,-4.01306 0.55204,-4.13541 2.71076,-5.76265 1.15472,-0.87043 1.87883,-0.85293 2.74237,0.0663 0.67634,0.71994 0.68283,0.77821 0.22552,2.025 -0.62678,1.70885 -1.11732,4.1887 -1.11732,5.6485 0,1.52525 0.58476,1.5585 1.69976,0.0967 1.64006,-2.15022 6.13334,-4.91708 7.96527,-4.90483 2.25878,0.0151 4.73497,1.90964 4.73497,3.62273 0,1.05319 -1.90683,2.99234 -3.99227,4.05995 -2.11451,1.08248 -5.42384,3.13666 -5.67814,3.52454 -0.55285,0.84329 -0.13172,2.08832 0.49454,1.46205 0.12328,-0.12327 1.32129,-0.38089 2.66226,-0.57249 2.20346,-0.31483 2.59816,-0.29138 4.10087,0.24367 3.03968,1.08229 5.41657,2.39802 6.20905,3.43701 0.4262,0.55877 0.8623,1.01595 0.96911,1.01595 0.10682,0 0.43176,-1.04625 0.7221,-2.325 0.29034,-1.27875 0.84787,-3.7425 1.23896,-5.475 0.39108,-1.7325 0.79725,-4.0275 0.90259,-5.1 0.10534,-1.0725 0.40783,-3.67814 0.67219,-5.79032 0.44883,-3.58608 0.44599,-4.06274 -0.043,-7.2 -1.28221,-8.22714 -4.0269,-14.11128 -9.34136,-20.02629 -0.97182,-1.08164 -2.14332,-2.4301 -2.60333,-2.99658 -1.53072,-1.885 -4.21389,-4.52713 -5.44637,-5.36305 -2.61159,-1.77131 -11.42445,-5.9541 -14.43074,-6.84918 -2.49762,-0.74363 -6.20074,-1.45918 -9.8865,-1.91037 -1.485,-0.18179 -3.51,-0.4537 -4.5,-0.60425 -2.8236,-0.42939 -10.78129,-0.59773 -12.6804,-0.26826 -0.94578,0.16409 -3.2721,0.50204 -5.1696,0.751 -3.37818,0.44324 -4.24529,0.62304 -10.35,2.14617 -5.10313,1.27323 -9.49346,2.16904 -12.91661,2.63551 -11.767866,1.60362 -17.368296,1.5322 -20.097906,-0.2563 -0.76501,-0.50126 -0.9821,-1.71389 -0.45572,-2.54561 0.21712,-0.34307 0.42559,-0.24331 1.05523,0.50498 0.43155,0.51287 1.28648,1.10644 1.89983,1.31904 2.50983,0.86993 13.797156,0.0768 21.944696,-1.54209 4.81792,-0.95728 9.88312,-2.07708 11.51827,-2.54643 1.48326,-0.42575 3.5112,-0.76964 10.85221,-1.84027 3.60294,-0.52546 12.30243,-0.45116 14.85,0.12683 0.7425,0.16845 3.0375,0.46054 5.1,0.64908 6.74272,0.61637 11.68087,2.12001 18.77848,5.71796 2.49067,1.26258 5.12317,2.70537 5.85,3.20621 1.74189,1.20027 4.95037,4.36836 7.92152,7.8218 2.32237,2.69934 3.26863,4.01658 5.60439,7.8016 l 1.1044,1.78963 1.7456,-0.41072 c 0.96009,-0.22589 2.13045,-0.41283 2.60082,-0.4154 0.84457,-0.005 0.85301,-0.0224 0.67868,-1.42969 -0.0971,-0.78375 -0.25311,-3.315 -0.34671,-5.625 l -0.17018,-4.2 1.17325,-3.6 c 1.32024,-4.05101 1.78685,-4.48631 3.1159,-2.90683 0.95878,1.13945 1.59667,3.36819 2.07151,7.23777 0.27558,2.2457 0.53804,3.28476 0.92827,3.675 1.25185,1.25184 3.25362,0.21466 3.80396,-1.97094 0.25321,-1.00558 0.64708,-1.57461 1.61258,-2.3297 0.70264,-0.54952 1.61503,-1.31799 2.02753,-1.7077 0.8296,-0.78379 3.49091,-2.14008 4.20825,-2.14467 0.93541,-0.006 1.79175,0.90082 1.79175,1.89733 0,1.14205 -0.50007,1.91874 -2.30882,3.58599 -2.08715,1.92386 -2.82923,3.87081 -1.62148,4.25413 0.31333,0.0995 1.49458,0.0319 2.625,-0.15006 2.89217,-0.46561 4.37508,-0.17156 7.1553,1.41884 2.68484,1.53583 3.86717,2.67786 4.37949,4.23018 0.31684,0.96006 0.28527,1.09939 -0.36638,1.61689 -0.63588,0.50497 -1.08674,0.54883 -4.16311,0.40502 -1.8975,-0.0887 -4.22625,-0.24127 -5.175,-0.33903 -0.94875,-0.0978 -1.725,-0.0616 -1.725,0.0804 0,0.14196 0.32727,0.73974 0.72727,1.32839 1.01838,1.49869 1.77313,4.2703 1.78882,6.56901 0.0208,3.04602 -1.56955,5.68443 -4.05145,6.72143 -2.67385,1.11721 -5.05853,-1.44776 -5.06923,-5.4525 -0.004,-1.64881 -0.35045,-2.81595 -0.6748,-2.27596 -0.0849,0.14137 -0.37316,1.13453 -0.64055,2.20703 -0.6983,2.80079 -2.38645,6.11548 -3.33461,6.54749 -1.08774,0.4956 -2.8896,0.4382 -3.68271,-0.11731 -0.36893,-0.25841 -0.94962,-1.01641 -1.29043,-1.68446 -0.5387,-1.05594 -0.61942,-1.76018 -0.61777,-5.39024 0.002,-3.30422 -0.1231,-4.5961 -0.59701,-6.19054 -0.32939,-1.10822 -0.59674,-2.26763 -0.5941,-2.57648 0.004,-0.49905 -0.15844,-0.53989 -1.46188,-0.36698 -2.20352,0.2923 -3.6994,0.99318 -3.45449,1.61855 0.92965,2.37377 1.69029,5.16369 1.94767,7.14372 0.16916,1.30144 0.4322,3.10875 0.58452,4.01625 0.4072,2.42601 0.37469,5.06239 -0.099,8.02487 -0.23084,1.44382 -0.57494,3.73643 -0.76465,5.09467 -0.38988,2.79125 -1.92321,9.78538 -2.54706,11.61816 -0.42827,1.25818 -2.64099,6.10076 -3.98093,8.7123 -1.13377,2.20974 -3.80791,5.64365 -5.49485,7.05603 -3.29712,2.76051 -8.28502,5.72001 -11.8706,7.04324 l -2.1278,0.78526 -0.0587,2.98274 c -0.0331,1.68382 0.063,2.98273 0.22072,2.98273 0.15366,0 1.32743,-0.21674 2.60837,-0.48164 2.6641,-0.55095 3.99973,-0.42579 5.15518,0.48309 0.96355,0.75793 1.66163,2.26879 1.41187,3.05572 -0.27044,0.85208 -1.36027,1.74283 -2.13235,1.74283 -1.06183,0 -3.0995,0.91512 -3.0995,1.39199 0,0.23476 0.20749,0.50646 0.4611,0.60378 0.2536,0.0973 0.63669,0.53183 0.8513,0.96558 0.34548,0.69825 0.26684,1.17662 -0.68609,4.17324 -0.90833,2.85638 -1.18592,3.41265 -1.7786,3.56438 -1.02631,0.26272 -1.8664,-0.7291 -2.75537,-3.25299 -0.41671,-1.18309 -0.89679,-2.19746 -1.06684,-2.25415 -0.17006,-0.0567 -0.48265,0.57374 -0.69465,1.40093 -0.21201,0.82719 -0.71068,1.98322 -1.10816,2.56894 -0.39748,0.58572 -0.72269,1.13808 -0.72269,1.22746 0,0.33799 -1.99795,2.29547 -3.15,3.08619 -1.83066,1.2565 -2.18795,1.31397 -3.01666,0.48526 -0.57639,-0.57639 -0.73334,-1.04506 -0.73334,-2.18985 0,-1.43087 1.00585,-6.0149 1.54601,-7.04576 0.19473,-0.37162 0.16246,-0.51995 -0.11046,-0.5077 -0.47206,0.0212 -1.55681,0.75969 -4.76808,3.24621 -2.57619,1.99478 -4.27752,2.74644 -4.87162,2.15234 -0.18272,-0.18272 -0.33219,-0.83478 -0.33216,-1.44903 6e-5,-1.30179 2.31583,-5.27553 3.80432,-6.52801 0.99078,-0.83369 0.93948,-1.09451 -0.24002,-1.22026 -1.75287,-0.18689 -2.21722,-1.77346 -0.80299,-2.74367 2.2166,-1.52065 3.94442,-1.94481 8.86127,-2.17535 2.60495,-0.12214 4.78055,-0.27325 4.83468,-0.3358 0.0541,-0.0625 0.17129,-1.22748 0.26037,-2.58873 0.18014,-2.75316 0.18049,-2.75276 -1.88402,-2.17919 -2.55565,0.71002 -7.69936,0.97214 -21.2973,1.08531 -17.9052,0.14901 -18.90166,0.23266 -22.28648,1.87101 -2.0552,0.99478 -2.87569,1.60427 -4.21837,3.13361 -2.78549,3.17272 -3.36716,5.27515 -2.44145,8.82462 0.99839,3.82813 0.37206,8.31333 -1.72079,12.32262 -0.86886,1.66449 -1.18863,1.98649 -2.75583,2.775 -0.9751,0.49061 -2.08628,0.89202 -2.46928,0.89202 -0.47079,0 -0.75253,0.21866 -0.86975,0.675 -0.19028,0.74079 -3.53062,3.40189 -4.48708,3.57465 -0.32947,0.0595 -0.80337,0.54095 -1.05312,1.06987 -0.56096,1.18802 -2.42909,2.59111 -4.12089,3.09507 -0.88875,0.26473 -1.44191,0.66543 -1.83247,1.32737 -0.694736,1.1775 -2.881556,2.99523 -4.332976,3.60168 -1.2265,0.51246 -3.24554,0.56092 -4.48651,0.10768 z m 76.663126,-24.32803 c 1.877,-1.83253 2.51959,-3.4068 2.84746,-6.97587 0.22278,-2.42511 0.65888,-3.14398 1.67154,-2.75538 0.52191,0.20027 2.89287,4.91099 2.89287,5.74766 0,0.70406 0.58087,1.70753 0.88104,1.52202 0.13802,-0.0853 0.34357,-0.64882 0.45677,-1.25226 0.11321,-0.60345 0.41448,-1.41562 0.6695,-1.80482 0.58535,-0.89336 0.23342,-1.38161 -1.57128,-2.17991 -1.71597,-0.75906 -2.13516,-1.54282 -1.24943,-2.33606 0.71585,-0.6411 3.34903,-1.72854 4.95867,-2.04783 1.92616,-0.38206 1.51044,-1.74474 -0.62994,-2.06486 -1.39911,-0.20926 -4.22252,0.47749 -5.07282,1.23388 -0.58057,0.51645 -0.86277,0.52217 -4.71392,0.0955 -1.55177,-0.17192 -2.8897,-0.24428 -2.97316,-0.16082 -0.0835,0.0835 0.0832,0.41135 0.37032,0.72863 0.74482,0.82303 0.1787,1.72169 -1.34265,2.13135 -1.34677,0.36265 -3.9571,1.8113 -5.044,2.79926 -0.90433,0.82202 -2.20495,2.84865 -2.07614,3.23506 0.054,0.16217 0.53,-0.0165 1.05765,-0.39701 0.52765,-0.38052 2.28013,-1.62043 3.89438,-2.75535 1.61426,-1.13492 3.3149,-2.44361 3.7792,-2.90822 0.89647,-0.89704 1.52313,-0.88019 2.02332,0.0544 0.2362,0.44135 0.0453,1.03 -0.88868,2.73971 -1.17805,2.15658 -2.93234,8.05559 -2.56998,8.64189 0.3616,0.58509 1.05778,0.24325 2.62928,-1.29102 z m -4.43813,-12.66489 1.2,-0.39549 -1.2,-0.0208 c -0.66,-0.0115 -1.5375,0.17211 -1.95,0.40792 l -0.75,0.42874 0.75,-0.0124 c 0.4125,-0.007 1.29,-0.1904 1.95,-0.40792 z m -44.61305,-9.43093 c 0.61218,-0.31488 1.49313,-0.97274 1.95768,-1.4619 0.46454,-0.48916 1.94954,-1.39974 3.3,-2.02353 2.86077,-1.32141 3.80537,-2.0771 3.80537,-3.04433 0,-0.9579 -0.74647,-0.89247 -2.37014,0.20775 -0.72609,0.492 -1.47534,0.89454 -1.665,0.89454 -0.55358,0 -1.06486,-0.66592 -1.06486,-1.38692 0,-0.64134 -0.0337,-0.63328 -0.87692,0.21 -1.07293,1.07293 -1.35702,1.08701 -2.26054,0.1121 -0.38985,-0.42065 -0.77283,-0.6569 -0.85107,-0.525 -0.36154,0.60949 -0.53107,2.7423 -0.23264,2.92674 0.93921,0.58046 -0.16869,1.96228 -1.57526,1.96475 -2.5841,0.005 -4.34565,1.34063 -3.033,2.30047 0.81419,0.59535 3.56106,0.49676 4.86638,-0.17467 z m 5.01305,-9.32747 c 0.55925,-1.08147 0.11968,-1.20627 -0.5655,-0.16055 -0.56028,0.8551 -0.59752,1.06055 -0.1922,1.06055 0.16076,0 0.50172,-0.405 0.7577,-0.9 z m 42.84955,-4.19463 c 1.77198,-0.8848 6.85902,-5.84427 8.00614,-7.80537 0.53083,-0.9075 1.33563,-2.1225 1.78843,-2.7 0.45281,-0.5775 1.04208,-1.92039 1.3095,-2.9842 0.26742,-1.06382 0.65725,-2.09092 0.8663,-2.28245 0.75477,-0.69155 5.90591,-3.71585 6.64495,-3.90134 0.82331,-0.20664 2.58513,-1.74302 2.58513,-2.25434 0,-1.26629 -1.76815,-2.26298 -3.45364,-1.94678 -1.71681,0.32207 -3.13958,1.30175 -5.75854,3.96515 -2.52901,2.57192 -3.22945,2.90769 -4.08758,1.95948 -1.01945,-1.12648 -1.15975,-2.2189 -0.65708,-5.1161 0.26125,-1.5057 0.55285,-2.94055 0.64801,-3.18853 0.29437,-0.76711 -0.73551,-0.51473 -1.27797,0.31316 -0.33677,0.514 -0.56899,1.76587 -0.70951,3.825 -0.25347,3.71445 -0.8088,5.04176 -2.41186,5.76463 -1.06177,0.4788 -1.16808,0.47688 -1.98189,-0.0357 -0.47297,-0.29789 -1.32834,-0.94072 -1.90084,-1.4285 -1.0717,-0.91312 -4.76137,-2.73722 -5.01786,-2.48072 -0.15171,0.15171 0.83272,1.6614 1.84938,2.83616 0.33078,0.38221 1.21556,1.02919 1.96618,1.43773 3.12003,1.69813 2.48205,3.0942 -2.09907,4.59337 -2.28744,0.74856 -4.26955,2.0314 -4.14422,2.68217 0.0486,0.25263 0.53603,0.72072 1.08308,1.04021 l 0.99463,0.5809 4.33356,-1.43238 c 4.14115,-1.36878 4.35911,-1.40925 4.90915,-0.91147 0.71289,0.64515 0.48572,1.32217 -0.5963,1.77713 -0.71953,0.30254 -1.62646,1.03473 -5.12592,4.1383 -0.43356,0.38451 -0.93981,0.99399 -1.125,1.35439 -0.38137,0.74218 -0.45161,2.57911 -0.11171,2.9211 0.33863,0.34069 2.06625,-0.0178 3.47455,-0.72101 z m 42.57063,-32.66521 c 0.78331,-0.93092 2.03645,-4.28796 2.59668,-6.95625 0.58218,-2.77287 1.35251,-4.61979 1.97702,-4.74006 0.80221,-0.1545 1.35612,0.75911 1.35612,2.23676 0,0.69626 0.26826,2.12171 0.59613,3.16766 0.32787,1.04595 0.59787,2.46669 0.6,3.1572 0.0109,3.53772 2.063,4.03298 4.12951,0.99663 1.18951,-1.74776 1.40356,-3.17124 0.83465,-5.55065 -0.57741,-2.41499 -0.98442,-3.15411 -2.61796,-4.75416 -0.88538,-0.86723 -1.15399,-1.35018 -1.08458,-1.95 l 0.0923,-0.79729 4.65,0.0999 c 2.5575,0.0549 5.14179,0.22498 5.74287,0.37791 1.19385,0.30375 2.05713,0.11333 2.05713,-0.45374 0,-0.94903 -3.61896,-3.26676 -5.92551,-3.79495 -0.661,-0.15136 -2.27189,-0.1311 -3.90821,0.0492 -1.53105,0.16866 -3.06213,0.2183 -3.40239,0.1103 -0.85778,-0.27225 -1.56098,-2.07696 -1.31668,-3.37918 0.14276,-0.76098 0.7994,-1.64922 2.42429,-3.27939 3.00255,-3.01231 3.04338,-3.8451 0.10904,-2.22401 -2.2097,1.22076 -3.69302,2.73051 -4.57461,4.65615 -0.91822,2.00567 -2.15529,2.88513 -4.06057,2.88677 -1.06168,9e-4 -1.46019,-0.1654 -2.13993,-0.89307 -0.87955,-0.94155 -1.17855,-2.12264 -1.82421,-7.20581 -0.17815,-1.4025 -0.44188,-2.67083 -0.58607,-2.81851 -0.15149,-0.15515 -0.66305,0.60477 -1.21171,1.8 -0.94322,2.05475 -0.94835,2.09246 -0.77082,5.66851 0.16743,3.37271 0.32779,4.58729 1.04962,7.95 0.84445,3.93396 1.2851,6.80872 1.54049,10.05 0.29214,3.70769 0.6142,5.29744 1.2214,6.02908 0.56867,0.68521 1.66581,0.48833 2.44605,-0.43892 z"
           id="path3992"
           inkscape:connector-curvature="0"
           inkscape:transform-center-x="-345.71429"
           inkscape:transform-center-y="2.8571429" />
      </g>
    </g>
    <g
       id="layer1-57"
       inkscape:label="Layer 1"
       transform="matrix(1.9135591,0,0,1.9370319,-365.71496,-976.1772)">
      <path
         inkscape:connector-curvature="0"
         id="path3401-63"
         d="m 297.98994,576.73481 c -0.25303,-0.201 -1.01427,-1.52839 -1.69164,-2.94975 -1.39383,-2.92475 -2.85773,-4.36643 -4.11365,-4.05121 -1.08426,0.27213 -3.85188,3.61806 -4.06201,4.91079 -0.1367,0.841 -0.36013,1.13721 -1.02497,1.35882 -0.4762,0.15873 -0.96221,0.16957 -1.10489,0.0246 -0.42486,-0.43158 -0.44179,-5.30908 -0.0189,-5.45004 0.20118,-0.0671 0.4401,0.1623 0.53095,0.50968 0.2225,0.85085 0.55315,0.79681 1.68646,-0.27561 0.5273,-0.49896 1.67058,-1.25882 2.54062,-1.68857 2.05683,-1.01596 3.47796,-0.86359 5.02346,0.53857 1.35001,1.2248 3.85698,6.03069 3.58798,6.87821 -0.20907,0.65876 -0.68316,0.72688 -1.35339,0.19447 z M 247,576.49385 c -1.0725,-0.14069 -2.46363,-0.27603 -3.0914,-0.30074 -1.58495,-0.0624 -1.8657,-0.66839 -2.28115,-4.92376 -0.19331,-1.98 -0.49725,-4.08982 -0.67543,-4.68849 -0.28534,-0.95872 -0.24124,-1.20038 0.36981,-2.02688 0.4867,-0.6583 0.85739,-0.88644 1.24197,-0.76438 0.3015,0.0957 1.23557,-0.0543 2.0757,-0.33337 4.193,-1.39269 7.35162,1.34398 5.19943,4.50487 -0.74924,1.1004 -0.77139,1.21537 -0.28901,1.5 2.59957,1.53385 3.75008,2.9259 3.75008,4.53735 0,0.76696 -0.21994,1.15574 -0.975,1.72347 -1.18037,0.88751 -2.73072,1.11226 -5.325,0.77193 z m 4.2061,-2.3745 c 0.41786,-0.66044 0.37658,-0.798 -0.55103,-1.83618 -0.69153,-0.77395 -1.07155,-0.94564 -2.09314,-0.94564 -0.68651,0 -1.87153,0.17452 -2.63337,0.38782 -1.16773,0.32695 -1.42808,0.3216 -1.65858,-0.0341 -0.52551,-0.81092 -0.11897,-1.56747 1.25979,-2.34441 1.95045,-1.09908 2.19363,-1.28558 2.76334,-2.11925 0.62959,-0.9213 0.63717,-1.33512 0.0355,-1.93682 -0.71262,-0.71262 -2.39911,-0.57259 -3.93346,0.3266 l -1.36174,0.79803 0.18892,1.82697 c 0.45149,4.36608 0.57611,5.02111 1.07605,5.65612 0.48482,0.61578 0.77835,0.67085 3.57561,0.67085 2.38229,0 3.10958,-0.0982 3.33215,-0.45 z m 125.40648,0.82947 c -0.50192,-1.0288 -0.91257,-2.01275 -0.91257,-2.18657 0,-0.17382 -0.27,-0.84562 -0.6,-1.4929 -0.71982,-1.41187 -0.7636,-2.34076 -0.13495,-2.8625 0.60724,-0.50396 1.18749,0.054 1.55173,1.49209 0.34208,1.35057 0.83592,1.47458 1.24129,0.31171 0.17946,-0.51478 0.74143,-1.32377 1.24883,-1.79775 0.83586,-0.78081 1.06916,-0.84687 2.48282,-0.70298 1.94255,0.19772 3.21028,0.66138 3.21028,1.17415 0,0.29542 -0.40387,0.35025 -1.64016,0.22265 -2.81639,-0.29068 -3.75456,0.93332 -3.75817,4.90313 -10e-4,1.6242 -0.0886,1.89743 -0.74112,2.325 -0.4067,0.26647 -0.80603,0.4845 -0.88742,0.4845 -0.0814,0 -0.55864,-0.84174 -1.06056,-1.87053 z m 10.97484,1.31187 c -1.35291,-1.49495 -1.16703,-4.67124 0.36404,-6.22043 1.92149,-1.94424 3.7467,-2.42276 4.88796,-1.28149 0.57186,0.57185 0.61939,0.85496 0.44982,2.67944 -0.18396,1.97932 -0.16505,2.05729 0.63558,2.62026 0.45385,0.31913 1.47452,0.67536 2.26816,0.79163 0.90403,0.13245 1.39949,0.34359 1.32655,0.56533 -0.16309,0.49577 -2.85109,0.61819 -4.15767,0.18935 -0.99209,-0.32561 -1.19025,-0.28777 -2.24464,0.42871 -1.35936,0.92371 -2.8147,1.01738 -3.5298,0.2272 z m 2.61664,-1.68825 c 0.24581,-0.24581 0.52545,-0.85331 0.62143,-1.35 0.096,-0.4967 0.24992,-1.29524 0.34208,-1.77453 0.097,-0.50472 0.0237,-0.96037 -0.17438,-1.08277 -0.48081,-0.29716 -2.01532,1.25926 -2.40467,2.439 -0.55515,1.68213 0.52234,2.8615 1.61554,1.7683 z m -132.15415,1.41404 c -0.60504,-0.28442 -1.57151,-1.08895 -2.1477,-1.78784 l -1.04761,-1.27071 0.61235,-1.72929 c 0.3368,-0.95111 0.75423,-1.90791 0.92764,-2.12622 0.6757,-0.85069 2.59396,-1.55307 4.24158,-1.55307 1.59661,0 1.69388,0.0467 2.5445,1.22093 0.53092,0.7329 0.81323,1.42241 0.70629,1.725 -0.46946,1.32829 -2.01625,2.35379 -4.08228,2.70649 -1.66633,0.28446 -1.88947,1.12944 -0.37338,1.41387 1.70055,0.31902 2.99418,-0.087 4.49993,-1.41244 1.16715,-1.02737 1.372,-1.36217 1.23459,-2.0178 -0.0906,-0.43233 -0.0388,-0.98231 0.1152,-1.22219 0.23522,-0.36643 0.39673,-0.37364 1.01067,-0.0451 0.65265,0.34928 0.86861,0.29981 2.0214,-0.46307 1.06258,-0.70318 1.61289,-0.85428 3.1138,-0.85493 1.65783,-7.2e-4 1.81373,0.0536 1.71959,0.5992 -0.13528,0.7841 -0.15213,0.79631 -1.1976,0.86869 -1.12521,0.0779 -3.32479,1.5789 -3.67901,2.51055 -0.18329,0.4821 -0.13441,0.96251 0.15486,1.52189 0.53023,1.02534 0.13668,1.84887 -0.88354,1.84887 -0.55042,0 -0.88141,-0.29876 -1.3512,-1.21963 -0.69606,-1.36438 -1.09096,-1.3916 -1.79371,-0.12365 -0.32739,0.59069 -0.95042,1.03246 -1.96295,1.39184 -1.87667,0.6661 -2.99586,0.67084 -4.38342,0.0186 z m 3.14332,-5.21705 c 0.90496,-0.48428 0.39135,-1.00453 -0.93296,-0.94502 -1.47223,0.0662 -2.46027,0.54388 -2.46027,1.18956 0,0.39487 0.23664,0.43802 1.425,0.25983 0.78375,-0.11751 1.66945,-0.34448 1.96823,-0.50437 z m 21.26677,5.38992 c -0.20075,-0.20075 -0.36,-1.16377 -0.36,-2.17698 0,-0.99934 -0.12779,-2.26257 -0.28399,-2.80719 -0.35019,-1.22104 -0.13422,-1.85583 0.6314,-1.85583 0.79549,0 1.45106,1.66528 1.66631,4.23279 0.12041,1.43624 0.0581,2.18969 -0.20756,2.50979 -0.45666,0.55024 -0.95947,0.58411 -1.44616,0.0974 z m 83.937,-0.77241 c -2.65521,-2.65522 -2.1036,-6.71801 1.09348,-8.05384 0.53267,-0.22256 1.0532,-0.5417 1.15672,-0.7092 0.33225,-0.5376 1.59451,-0.32591 2.45133,0.41109 0.7166,0.61639 0.77623,0.78281 0.42999,1.2 -0.24237,0.29205 -0.85971,0.48436 -1.55481,0.48436 -1.59809,0 -3.27371,1.45194 -3.27371,2.83671 0,1.2048 1.15001,2.98136 2.01052,3.10591 0.77286,0.11186 3.318,-1.13266 4.11098,-2.01019 0.65503,-0.72487 1.37851,-0.83321 1.37851,-0.20643 0,0.66543 -3.30766,3.44771 -4.48885,3.77585 -1.69529,0.47097 -2.11443,0.36547 -3.31416,-0.83426 z m -89.34415,0.30741 c -0.58624,-1.14729 -1.85285,-7.86213 -1.85285,-9.82276 0,-1.45556 0.59212,-2.43458 1.30662,-2.1604 0.36144,0.1387 0.49338,0.5681 0.49338,1.60569 0,1.81021 0.47889,4.4192 1.36409,7.43157 0.49946,1.69968 0.61568,2.53501 0.40696,2.925 -0.37152,0.69419 -1.36797,0.70631 -1.7182,0.0209 z m 58.89715,-0.0398 c -1.05101,-0.65698 -4.35,-4.11944 -4.35,-4.56555 0,-0.82845 1.97906,-2.66885 3.64847,-3.39285 2.10075,-0.91107 2.98651,-0.97268 3.61955,-0.25177 0.9923,1.13003 0.915,1.73018 -0.37269,2.89353 -0.67038,0.60565 -1.61857,1.18112 -2.1071,1.27882 -0.58646,0.1173 -0.88823,0.35969 -0.88823,0.71348 0,0.53909 1.58983,2.08917 2.14274,2.08917 1.0809,0 3.36161,-2.2546 3.88696,-3.84246 0.28924,-0.87423 0.42501,-0.97123 1.13965,-0.81427 0.53033,0.11648 1.3774,-0.0737 2.44597,-0.54918 1.8462,-0.82149 4.1297,-1.19889 4.7889,-0.79148 0.66005,0.40793 6e-4,0.91361 -1.44425,1.1074 -0.84283,0.11304 -1.5035,0.46269 -2.1662,1.14643 -0.95965,0.9901 -1.11995,1.69191 -0.7339,3.21309 0.17844,0.70309 0.093,0.86323 -0.60111,1.12714 -1.00802,0.38325 -1.21938,0.25262 -1.96914,-1.21702 -0.68825,-1.34909 -1.02356,-1.46066 -1.51667,-0.50465 -0.46864,0.90855 -1.99736,2.31111 -2.88812,2.64978 -1.05889,0.40259 -1.62746,0.34009 -2.63483,-0.28961 z m -17.6696,-0.41017 c -0.2384,-0.37125 -0.65609,-1.45125 -0.92821,-2.4 -0.42981,-1.49854 -0.59166,-1.725 -1.23289,-1.725 -1.3505,0 -1.18339,-1.3953 0.22327,-1.86419 0.14161,-0.0472 0.0704,-0.97992 -0.15823,-2.0727 -0.45804,-2.18921 -0.33972,-3.52231 0.33563,-3.78147 0.62663,-0.24046 0.82294,0.21668 1.26684,2.95013 0.23064,1.42021 0.55657,2.48045 0.79006,2.57005 0.60437,0.23192 5.83133,-0.39001 6.17619,-0.73488 0.20342,-0.20341 0.15923,-0.9992 -0.13485,-2.42845 -0.43754,-2.12653 -0.39063,-3.49651 0.13076,-3.81875 0.51241,-0.31669 1.15103,0.54489 1.15103,1.55288 0,0.54953 0.12566,1.30925 0.27924,1.68826 0.15358,0.37902 0.35865,1.06037 0.45572,1.51412 0.12042,0.56296 0.36523,0.825 0.77076,0.825 0.32825,0 0.59428,0.20144 0.59428,0.45 0,0.2475 -0.1259,0.45 -0.27978,0.45 -0.70334,0 -0.56793,1.37873 0.41709,4.24687 0.58448,1.70185 1.06269,3.13899 1.06269,3.19363 0,0.0547 -0.37079,0.0566 -0.82398,0.004 -0.93705,-0.10795 -1.44115,-0.95172 -2.52618,-4.22833 -0.52132,-1.57428 -0.77794,-1.99136 -1.13659,-1.84722 -0.25479,0.1024 -1.54725,0.34983 -2.87214,0.54984 -3.45748,0.52196 -3.51757,0.58445 -2.56975,2.67224 0.91395,2.01321 0.9249,2.90854 0.0356,2.90854 -0.3262,0 -0.78813,-0.30375 -1.02652,-0.675 z m 97.41148,0.46143 c -0.40559,-0.14177 -0.75642,-1.18056 -1.33329,-3.94768 -0.21914,-1.05118 -0.5558,-1.97163 -0.74814,-2.04544 -0.19234,-0.0738 -1.07212,0.23429 -1.95507,0.68466 -0.88296,0.45037 -1.94287,0.84404 -2.35537,0.87481 -1.99303,0.14869 -4.12892,0.55798 -4.85679,0.93068 -0.62289,0.31895 -0.82804,0.66937 -0.9,1.53733 -0.13355,1.61071 -0.92626,1.65861 -1.55237,0.0938 -0.54314,-1.35745 -0.66543,-1.4004 -2.18235,-0.76659 -1.20184,0.50216 -1.60849,0.38623 -1.60849,-0.45855 0,-0.36097 0.41479,-0.78793 1.11396,-1.14662 l 1.11397,-0.5715 0.011,-3.1326 c 0.0104,-2.95457 0.0627,-3.21628 0.92037,-4.60501 0.86385,-1.39878 2.52381,-2.83373 3.27807,-2.83373 0.55524,0 2.25321,1.80819 2.45575,2.61516 0.11965,0.47674 0.0165,0.90379 -0.29325,1.21349 -0.43716,0.43717 -0.49547,0.42861 -0.68449,-0.10039 -0.11364,-0.31804 -0.40674,-0.81143 -0.65133,-1.09641 -0.41968,-0.48901 -0.49341,-0.48938 -1.31077,-0.007 -1.43742,0.84911 -2.15739,2.74702 -1.98041,5.22058 0.0825,1.1534 0.29279,2.23983 0.46724,2.41429 0.22293,0.22293 1.22132,0.2222 3.35941,-0.002 2.81368,-0.29564 3.13863,-0.39867 4.32593,-1.37157 0.70605,-0.57856 1.64293,-1.14207 2.08195,-1.25226 0.43902,-0.11019 0.87123,-0.31847 0.96046,-0.46285 0.0892,-0.14437 -0.0562,-1.13363 -0.32325,-2.19833 -0.3678,-1.46655 -0.40525,-2.08576 -0.15451,-2.55427 0.67365,-1.25873 1.13309,-0.73392 1.82229,2.08158 l 0.47735,1.95 2.48792,0.20781 c 3.54081,0.29577 3.68379,0.73298 0.4723,1.44424 -0.99,0.21926 -1.95039,0.51228 -2.1342,0.65116 -0.34496,0.26066 -0.18681,1.48933 0.4563,3.54481 0.65716,2.10041 0.31118,3.46991 -0.78023,3.08841 z m 39.92771,-0.13564 c -0.1187,-0.19206 -0.26228,-1.30581 -0.31907,-2.475 -0.14136,-2.91042 -0.45972,-3.94759 -1.17923,-3.84176 -0.3142,0.0462 -1.07753,0.16524 -1.69628,0.2645 -1.05717,0.16959 -1.125,0.13357 -1.125,-0.59747 0,-0.64357 0.1943,-0.83173 1.125,-1.08942 1.86823,-0.51726 1.94809,-0.62976 1.53731,-2.1656 -0.41638,-1.5568 -0.22207,-2.34604 0.57758,-2.34604 0.61028,0 1.10246,0.78561 1.48666,2.373 l 0.2476,1.023 2.98792,-0.0133 c 1.64336,-0.007 3.2437,-0.11837 3.55631,-0.24675 0.86939,-0.35701 1.39541,0.57971 1.18551,2.1111 -0.1587,1.15789 -0.0816,1.3553 0.92145,2.35832 1.29253,1.29253 2.45088,1.4354 3.40238,0.41966 0.81371,-0.86864 1.33557,-2.25299 1.1133,-2.95329 -0.21881,-0.6894 0.3387,-1.77171 0.91262,-1.77171 0.23789,0 0.63891,0.31499 0.89117,0.69997 0.37048,0.56544 0.40184,0.99944 0.16314,2.25807 -0.16251,0.85696 -0.42089,1.79072 -0.57417,2.07503 -0.54782,1.01613 -1.79699,1.92244 -3.03221,2.19998 -2.47139,0.55528 -5.1198,-1.69919 -5.5769,-4.74739 -0.1746,-1.16434 -0.27991,-1.31289 -0.8372,-1.181 -0.35061,0.083 -1.40968,0.24342 -2.3535,0.35655 -0.94381,0.11312 -1.83966,0.35938 -1.99078,0.54724 -0.25186,0.31309 0.24242,4.4284 0.70813,5.89572 0.28573,0.90025 -1.62869,1.66057 -2.13174,0.84662 z m 30.64231,0.0685 c -0.15432,-0.2497 -0.3231,-1.29017 -0.96427,-5.94425 -0.15636,-1.13494 -0.10949,-1.275 0.42663,-1.275 0.33126,0 0.78756,0.22076 1.01402,0.49057 0.41298,0.49206 1.49986,6.36216 1.25617,6.78443 -0.18564,0.32167 -1.52594,0.27854 -1.73255,-0.0557 z m -131.7562,-0.31724 c -0.35436,-0.14298 -0.72239,-0.38632 -0.81784,-0.54075 -0.0954,-0.15444 -0.48419,-0.22141 -0.86389,-0.14882 -0.62724,0.1199 -0.72286,-0.0277 -1.04605,-1.61524 -0.3631,-1.78355 -0.67456,-5.4608 -0.72809,-8.59647 -0.0349,-2.04154 0.52672,-2.98133 1.31216,-2.19589 0.32405,0.32406 0.50666,1.50884 0.66117,4.28974 0.11741,2.11313 0.27413,3.90271 0.34829,3.97686 0.0742,0.0742 0.50466,-0.2051 0.95668,-0.62056 2.13965,-1.96656 4.27011,-2.53261 6.05605,-1.60906 1.05653,0.54635 2.2142,2.84099 2.24396,4.4478 0.0257,1.38469 -0.79423,2.18082 -2.70135,2.62314 -1.47004,0.34094 -4.56464,0.3348 -5.42109,-0.0108 z m 6.15275,-2.55531 c 0.89789,-0.84639 -0.97585,-3.7467 -2.42055,-3.7467 -0.87753,0 -4.13671,3.80119 -3.66426,4.27364 0.31394,0.31394 5.68632,-0.1513 6.08481,-0.52694 z m 83.89156,2.5533 c -0.33,-0.14181 -1.03123,-0.26732 -1.55827,-0.27891 -0.55294,-0.0122 -1.31019,-0.32379 -1.79025,-0.73673 -0.73019,-0.62808 -0.78094,-0.77714 -0.4148,-1.21831 0.34861,-0.42005 0.74152,-0.46843 2.39025,-0.2943 1.08519,0.11461 2.56131,0.384 3.28027,0.59865 1.43755,0.42918 2.7428,0.1503 2.7428,-0.58604 0,-0.23676 -0.5263,-1.09629 -1.16955,-1.91007 -1.17906,-1.49162 -2.58654,-2.34865 -5.08556,-3.09666 -1.67443,-0.50119 -2.26584,-1.34114 -1.82822,-2.59651 0.64329,-1.84535 5.77623,-3.11679 7.12751,-1.76551 0.71827,0.71827 -0.0163,1.28686 -1.97816,1.5313 -2.2008,0.27419 -2.99875,0.66374 -2.42602,1.18435 0.2255,0.20498 1.03414,0.60144 1.79699,0.88101 2.59985,0.95283 5.50178,4.53281 5.30809,6.54835 -0.0756,0.78716 -0.3097,1.09659 -1.14508,1.51391 -1.11922,0.55912 -4.16879,0.69008 -5.25,0.22547 z m 50.65092,-0.28095 c -1.09961,-0.67049 -2.50092,-3.23302 -2.50092,-4.57336 0,-0.79238 0.42142,-2.05931 1.17941,-3.54569 0.39568,-0.7759 1.6046,-1.19099 3.48202,-1.19558 2.19429,-0.005 4.22882,0.91121 4.9846,2.24558 0.44273,0.78168 0.46335,1.12694 0.15686,2.62626 -0.43837,2.14441 -1.61448,3.67857 -3.41013,4.44828 -1.69604,0.727 -2.69286,0.7256 -3.89184,-0.005 z m 3.41198,-1.8084 c 1.00049,-0.61003 2.1871,-2.55142 2.1871,-3.57827 0,-0.57341 -1.41614,-1.83238 -2.06113,-1.83238 -0.17518,0 -0.78911,-0.22441 -1.36428,-0.49869 -0.88123,-0.42023 -1.12212,-0.43533 -1.53104,-0.096 -0.27535,0.22852 -0.41932,0.65493 -0.33281,0.98573 0.0842,0.32177 -0.11149,0.94 -0.43661,1.37975 -0.5108,0.69089 -0.5427,0.93512 -0.24004,1.83797 0.45272,1.35054 1.40793,2.39149 2.1932,2.39008 0.34249,-6.3e-4 1.05601,-0.26532 1.58561,-0.58823 z m -24.3629,1.19837 c -1.79398,-0.71221 -2.32987,-3.31374 -1.04154,-5.0563 1.10886,-1.49982 2.50482,-2.25452 3.74113,-2.02259 l 1.02746,0.19275 -0.005,-2.18644 c -0.006,-2.8119 0.32297,-3.95787 1.17245,-4.08224 1.01738,-0.14896 1.32979,1.08734 1.52768,6.04549 l 0.1776,4.4497 0.99447,0.88847 c 1.0304,0.92058 1.1702,1.8337 0.3062,2.00009 -0.27085,0.0522 -0.99069,-0.34263 -1.59965,-0.8773 -0.91188,-0.80064 -1.19486,-0.91005 -1.60411,-0.62021 -1.70355,1.20652 -3.57798,1.71278 -4.69691,1.26858 z m 2.72391,-2.07466 c 0.50814,-0.30987 1.10577,-1.00247 1.32805,-1.53911 0.36395,-0.87863 0.3484,-1.01647 -0.15624,-1.38548 -0.95773,-0.7003 -2.11646,-0.5 -2.96905,0.51325 -0.89814,1.06738 -1.00683,2.21311 -0.25167,2.65295 0.73702,0.42928 0.99949,0.39832 2.04891,-0.24161 z m -198.41583,-5.30751 c -0.37212,-0.26064 -0.65809,-0.77946 -0.65809,-1.19393 0,-0.63314 0.13851,-0.73299 1.01677,-0.73299 0.55922,0 1.33547,0.25997 1.725,0.57771 0.68874,0.56182 0.69172,0.58371 0.10823,0.7956 -0.33,0.11984 -0.81011,0.39714 -1.06691,0.61622 -0.39023,0.33291 -0.57501,0.32262 -1.125,-0.0626 z m 206.83453,-0.95192 c -0.66461,-2.36047 -0.45809,-3.09874 0.69432,-2.482 0.94665,0.50664 1.24764,1.3122 0.82802,2.21615 -0.41552,0.89512 -1.30159,1.04985 -1.52234,0.26585 z"
         style="fill:#000000" />
    </g>
  </g>
</svg>
